<?xml version="1.0" encoding="UTF-8"?>
<svg version="1.1" xmlns="http://www.w3.org/2000/svg" width="512" height="512">
<path d="M0 0 C1.39798828 1.10988281 1.39798828 1.10988281 2.82421875 2.2421875 C11.8767893 9.53979668 20.64585937 16.95802381 28 26 C28.40863281 26.49628906 28.81726563 26.99257812 29.23828125 27.50390625 C49.70762484 52.45644901 62.45761856 80.13771287 62.3125 112.75 C62.31034485 113.41019135 62.3081897 114.07038269 62.30596924 114.75057983 C62.13440162 147.53536624 48.80355109 177.91243769 26.25 201.62890625 C24.31243924 203.67074545 22.53056003 205.76076536 20.75 207.9375 C12.25187703 217.66665947 1.43464839 225.34679217 -9.015625 232.8203125 C-11.94514906 234.84250474 -11.94514906 234.84250474 -14 237 C-4.76265667 252.89636568 4.56258783 268.73779778 13.95019531 284.54589844 C16.0193544 288.03138297 18.08425676 291.51937804 20.1484375 295.0078125 C21.1772432 296.74598543 22.20608316 298.48413809 23.23492432 300.22229004 C24.23877355 301.91853026 25.24219196 303.61502543 26.24560547 305.31152344 C29.36466244 310.57867626 32.49799438 315.83598289 35.671875 321.0703125 C36.23616211 322.00238525 36.80044922 322.93445801 37.38183594 323.89477539 C38.43323663 325.62812713 39.48837055 327.35922186 40.54785156 329.08764648 C41.00643555 329.84376221 41.46501953 330.59987793 41.9375 331.37890625 C42.33839844 332.0344751 42.73929687 332.69004395 43.15234375 333.36547852 C44 335 44 335 44 337 C11 337 -22 337 -56 337 C-61.94 325.78 -67.88 314.56 -74 303 C-80.88382415 290.23488196 -80.88382415 290.23488196 -87.79516602 277.48486328 C-88.85722099 275.29446906 -89.53178664 273.37761877 -90 271 C-90.58040039 271.15557373 -91.16080078 271.31114746 -91.75878906 271.47143555 C-110.94783055 276.56396944 -130.2918685 280.53648356 -150 283 C-150.33 300.82 -150.66 318.64 -151 337 C-180.37 337 -209.74 337 -240 337 C-240 318.85 -240 300.7 -240 282 C-244.29 281.67 -248.58 281.34 -253 281 C-257.74691426 280.32896864 -262.427129 279.39119612 -267.125 278.4375 C-267.76629852 278.30817078 -268.40759705 278.17884155 -269.06832886 278.04559326 C-317.0780481 268.28223125 -363.06601526 248.53234345 -400 216 C-400.50192871 215.56123535 -401.00385742 215.1224707 -401.52099609 214.67041016 C-407.46808848 209.4557471 -413.03121818 204.15696878 -418 198 C-418.75796875 197.07960938 -419.5159375 196.15921875 -420.296875 195.2109375 C-439.37951007 171.57069491 -450.4484509 143.8020517 -450.3125 113.25 C-450.31034485 112.58980865 -450.3081897 111.92961731 -450.30596924 111.24942017 C-450.25314839 101.15590554 -449.8107367 91.74673716 -447 82 C-446.81195801 81.34386719 -446.62391602 80.68773437 -446.43017578 80.01171875 C-439.98181373 58.21964078 -428.02807131 38.99889127 -412.4453125 22.62109375 C-409.98740804 20.05407925 -409.98740804 20.05407925 -407.88671875 17.3515625 C-404.98678125 13.73714764 -401.55710173 10.95347235 -398 8 C-397.21206055 7.34354492 -397.21206055 7.34354492 -396.40820312 6.67382812 C-331.18894313 -47.3943323 -240.39041641 -66.19267003 0 0 Z M-308 54 C-308.59103516 54.474375 -309.18207031 54.94875 -309.79101562 55.4375 C-330.24411564 72.02459695 -345.62131551 92.16761399 -349 119 C-350.6288529 139.65475975 -343.70031846 159.71085432 -330.64501953 175.65478516 C-327.56144236 179.23407252 -324.30002499 182.62081399 -321 186 C-320.35675781 186.70511719 -319.71351563 187.41023437 -319.05078125 188.13671875 C-301.34869193 207.06758651 -275.48702469 218.95845854 -251.5 227.5625 C-250.80003906 227.81418945 -250.10007812 228.06587891 -249.37890625 228.32519531 C-246.02411952 229.47944124 -243.59716161 230 -240 230 C-240 169.94 -240 109.88 -240 48 C-194.04110665 48.0895623 -194.04110665 48.0895623 -174.71289062 48.16015625 C-161.39201025 48.20862407 -148.07120536 48.25309607 -134.75024414 48.27099609 C-125.04662701 48.28405416 -115.34316424 48.31112425 -105.63963407 48.35461307 C-100.50766161 48.37713477 -95.37587887 48.39291629 -90.24385262 48.39188385 C-85.40022604 48.39113171 -80.55701736 48.40930225 -75.71349907 48.44116783 C-73.94845872 48.44959368 -72.18337108 48.45146738 -70.4183197 48.44580269 C-46.32514955 48.37885842 -22.22860895 54.62893998 -4.31640625 71.62109375 C8.20879242 84.48424045 15.28822616 100.92713389 16 119 C16.03996094 119.9590625 16.07992188 120.918125 16.12109375 121.90625 C16.57022687 143.67599649 11.45906514 164.66359032 -3.76904297 180.79272461 C-18.39108235 195.76594834 -36.77527774 203.0272867 -57 207 C-54.53310923 208.64459385 -52.66738045 209.60520682 -49.9453125 210.62109375 C-49.16542969 210.91693359 -48.38554687 211.21277344 -47.58203125 211.51757812 C-45.9521449 212.12781379 -44.32193933 212.7371976 -42.69140625 213.34570312 C-39.28343359 214.63983442 -36.32671419 215.77603506 -33.3046875 217.84765625 C-30.99255304 219.29394741 -30.99255304 219.29394741 -28.16796875 218.46875 C-24.37505955 216.71026189 -20.84897075 214.72471207 -17.3125 212.5 C-16.61278076 212.06147705 -15.91306152 211.6229541 -15.19213867 211.17114258 C-8.81599809 207.06827922 -3.37510388 202.35709683 2 197 C2.8559375 196.15050781 3.711875 195.30101562 4.59375 194.42578125 C15.94979733 182.97755821 23.25591053 170.3172913 28 155 C28.51240234 153.35064453 28.51240234 153.35064453 29.03515625 151.66796875 C35.33413462 126.50135283 32.00539316 97.72927387 18.97998047 75.23876953 C-0.65989373 43.26325806 -34.69754506 26.88910736 -70 18 C-86.49372367 14.08135693 -103.13563651 11.62507825 -120 10 C-120.72960937 9.92797363 -121.45921875 9.85594727 -122.2109375 9.78173828 C-127.14056939 9.32262978 -132.05306229 9.11573358 -137 9 C-138.1334082 8.97276855 -139.26681641 8.94553711 -140.43457031 8.91748047 C-197.88022223 7.76041705 -261.83942137 16.76121388 -308 54 Z M-150 111 C-150.7213011 127.01058231 -151.14453125 142.97308977 -151 159 C-143.74094618 159.09319077 -136.48202395 159.16401115 -129.22249031 159.20724869 C-125.85058398 159.22801376 -122.47909062 159.25612389 -119.10742188 159.30175781 C-115.21994347 159.35056663 -111.33304265 159.37303643 -107.4453125 159.390625 C-106.25011993 159.41127014 -105.05492737 159.43191528 -103.82351685 159.45318604 C-95.11841711 159.45549221 -88.56050531 157.77595975 -81.125 153.25 C-75.61979247 147.42095673 -73.63318654 140.29374703 -73.80078125 132.4296875 C-74.46353958 124.3466349 -77.40358775 119.93834054 -83.453125 114.62890625 C-90.48726683 110.13007628 -98.07975631 110.73585833 -106.15234375 110.8046875 C-108.03524864 110.80893234 -108.03524864 110.80893234 -109.95619202 110.81326294 C-113.27214347 110.82252873 -116.58781301 110.84045701 -119.90368652 110.8626709 C-123.29579245 110.88323405 -126.68792766 110.89228691 -130.08007812 110.90234375 C-136.72012917 110.92434876 -143.36004833 110.95778505 -150 111 Z M-151 224 C-151 230.27 -151 236.54 -151 243 C-129.91354355 242.50581367 -129.91354355 242.50581367 -109 240 C-110.31496658 236.14902644 -111.86074837 233.73065568 -114.75 230.875 C-115.40484375 230.21242188 -116.0596875 229.54984375 -116.734375 228.8671875 C-123.59125369 223.21617368 -129.82734201 223.63191568 -138.375 223.8125 C-139.58800781 223.82603516 -140.80101562 223.83957031 -142.05078125 223.85351562 C-145.03404568 223.88875103 -148.01708059 223.94255433 -151 224 Z " fill="#1E64B7" transform="translate(450,117)"/>
<path d="M0 0 C1.39798828 1.10988281 1.39798828 1.10988281 2.82421875 2.2421875 C11.8767893 9.53979668 20.64585937 16.95802381 28 26 C28.40863281 26.49628906 28.81726563 26.99257812 29.23828125 27.50390625 C49.70762484 52.45644901 62.45761856 80.13771287 62.3125 112.75 C62.31034485 113.41019135 62.3081897 114.07038269 62.30596924 114.75057983 C62.13440162 147.53536624 48.80355109 177.91243769 26.25 201.62890625 C24.31243924 203.67074545 22.53056003 205.76076536 20.75 207.9375 C13.29211598 216.4757317 3.93870964 223.45321721 -5.125 230.1875 C-5.75212891 230.65712158 -6.37925781 231.12674316 -7.02539062 231.6105957 C-9.99502709 233.77359941 -12.4084704 235.26251459 -16 236 C-16.42410156 235.34773438 -16.84820312 234.69546875 -17.28515625 234.0234375 C-21.0387853 228.43011773 -24.67586583 224.12892038 -30 220 C-27.22195222 216.75040167 -23.59357843 214.90692552 -19.9375 212.8125 C-12.63866703 208.53599821 -5.74982758 203.90009389 0.14453125 197.76953125 C2 196 2 196 4 196 C4.26554687 195.41089844 4.53109375 194.82179688 4.8046875 194.21484375 C6.03136826 191.94187646 7.3441234 190.42206649 9.125 188.5625 C17.86329731 178.69785252 23.14239869 167.4550777 27 155 C27.51240234 153.35064453 27.51240234 153.35064453 28.03515625 151.66796875 C34.33413462 126.50135283 31.00539316 97.72927387 17.97998047 75.23876953 C-1.42403472 43.6472581 -35.14338141 27.77684641 -70 19 C-86.49372367 15.08135693 -103.13563651 12.62507825 -120 11 C-120.72960937 10.92797363 -121.45921875 10.85594727 -122.2109375 10.78173828 C-127.14056939 10.32262978 -132.05306229 10.11573358 -137 10 C-138.1334082 9.97276855 -139.26681641 9.94553711 -140.43457031 9.91748047 C-197.97548121 8.75849835 -261.71122245 17.83209503 -308 55 C-308.58040039 55.45842285 -309.16080078 55.9168457 -309.75878906 56.38916016 C-329.80864976 72.35879314 -345.03594171 92.85700591 -348 119 C-349.34711072 140.57967748 -342.30459331 160.98500893 -328.21875 177.3046875 C-325.55862686 180.28256029 -322.78869317 183.14266208 -320 186 C-319.43023437 186.63164062 -318.86046875 187.26328125 -318.2734375 187.9140625 C-297.95744871 209.89700422 -265.92935071 221.20750883 -239 231 C-239 247.83 -239 264.66 -239 282 C-248.87190465 281.29486395 -257.63830669 280.38948525 -267.1875 278.4375 C-268.47906006 278.17501465 -269.77062012 277.9125293 -271.10131836 277.64208984 C-318.36743764 267.80822109 -363.62566978 248.03938627 -400 216 C-400.50192871 215.56123535 -401.00385742 215.1224707 -401.52099609 214.67041016 C-407.46808848 209.4557471 -413.03121818 204.15696878 -418 198 C-418.75796875 197.07960938 -419.5159375 196.15921875 -420.296875 195.2109375 C-439.37951007 171.57069491 -450.4484509 143.8020517 -450.3125 113.25 C-450.31034485 112.58980865 -450.3081897 111.92961731 -450.30596924 111.24942017 C-450.25314839 101.15590554 -449.8107367 91.74673716 -447 82 C-446.81195801 81.34386719 -446.62391602 80.68773437 -446.43017578 80.01171875 C-439.98181373 58.21964078 -428.02807131 38.99889127 -412.4453125 22.62109375 C-409.98740804 20.05407925 -409.98740804 20.05407925 -407.88671875 17.3515625 C-404.98678125 13.73714764 -401.55710173 10.95347235 -398 8 C-397.21206055 7.34354492 -397.21206055 7.34354492 -396.40820312 6.67382812 C-331.18894313 -47.3943323 -240.39041641 -66.19267003 0 0 Z " fill="#A9ABAF" transform="translate(450,117)"/>
<path d="M0 0 C2.5546875 0.41015625 2.5546875 0.41015625 4.609375 2.7265625 C5.21007812 3.79777344 5.81078125 4.86898438 6.4296875 5.97265625 C6.75775391 6.54677246 7.08582031 7.12088867 7.42382812 7.71240234 C8.49159194 9.59922408 9.52316939 11.50331056 10.5546875 13.41015625 C11.31686399 14.776513 12.0798933 16.14239436 12.84375 17.5078125 C13.58298329 18.84902048 14.32001697 20.19144352 15.0546875 21.53515625 C15.40515137 22.17396729 15.75561523 22.81277832 16.11669922 23.47094727 C17.63646885 26.32788449 18.5546875 28.12361986 18.5546875 31.41015625 C-0.99444978 36.93877138 -21.14345108 41.77837824 -41.4453125 43.41015625 C-42.4453125 42.41015625 -42.4453125 42.41015625 -42.55883789 38.71655273 C-42.55867874 37.07144333 -42.55298238 35.42632894 -42.54296875 33.78125 C-42.5415538 32.9170192 -42.54013885 32.05278839 -42.53868103 31.16236877 C-42.53306489 28.39076333 -42.52050969 25.61923745 -42.5078125 22.84765625 C-42.50279958 20.97330845 -42.49823631 19.0989594 -42.49414062 17.22460938 C-42.48309022 12.61976081 -42.4658148 8.01497204 -42.4453125 3.41015625 C-39.85307171 2.11403585 -37.84963071 2.21600432 -34.94921875 2.12890625 C-33.27375977 2.07283203 -33.27375977 2.07283203 -31.56445312 2.015625 C-30.39076172 1.98082031 -29.21707031 1.94601562 -28.0078125 1.91015625 C-21.47832846 1.71061344 -14.97728523 1.50479635 -8.47265625 0.87890625 C-7.15019897 0.75914429 -7.15019897 0.75914429 -5.80102539 0.63696289 C-3.86468255 0.45053295 -1.93165693 0.22995916 0 0 Z " fill="#A8AAB0" transform="translate(340.4453125,356.58984375)"/>
</svg>
