<?xml version="1.0" encoding="UTF-8"?>
<svg version="1.1" xmlns="http://www.w3.org/2000/svg" width="1200" height="648">
<path d="M0 0 C189.42 0 378.84 0 574 0 C574 12.55384615 574 12.55384615 573.5625 18.625 C573.48128906 19.81351563 573.40007813 21.00203125 573.31640625 22.2265625 C573 25 573 25 572 26 C571.70877347 29.08608633 571.47597501 32.15738911 571.28125 35.25 C571.21844849 36.17844727 571.15564697 37.10689453 571.09094238 38.06347656 C570.88957621 41.04204389 570.69409829 44.02095074 570.5 47 C570.24478771 50.9170361 569.98366033 54.8336092 569.71875 58.75 C569.661427 59.66040039 569.604104 60.57080078 569.54504395 61.50878906 C569.11280181 67.88719819 569.11280181 67.88719819 568 69 C567.79185616 70.71704093 567.65171269 72.44228975 567.53515625 74.16796875 C567.45281738 75.34665527 567.37047852 76.5253418 567.28564453 77.73974609 C567.21836151 78.74687653 567.21836151 78.74687653 567.14971924 79.77435303 C566.98542388 82.21668087 566.81332752 84.65838475 566.64013672 87.10009766 C566.23396282 92.83720037 565.83546999 98.57482329 565.4375 104.3125 C565.29756948 106.32487281 565.15759585 108.33724263 565.01757812 110.34960938 C564.67788877 115.23303853 564.33878171 120.1165078 564 125 C563.34 125 562.68 125 562 125 C562.01667725 125.75756592 562.03335449 126.51513184 562.05053711 127.2956543 C562.17128096 137.55888179 561.52843146 147.71503263 560.77319336 157.94555664 C560.55960436 160.85190154 560.35651056 163.75885933 560.15429688 166.66601562 C560.02144917 168.51306523 559.88800844 170.3600723 559.75390625 172.20703125 C559.6934462 173.07664993 559.63298615 173.94626862 559.57069397 174.84223938 C559.11509314 180.88490686 559.11509314 180.88490686 558 182 C557.79371817 183.7407757 557.65149646 185.48919086 557.53515625 187.23828125 C557.45837646 188.35614014 557.38159668 189.47399902 557.30249023 190.62573242 C557.22329346 191.84236572 557.14409668 193.05899902 557.0625 194.3125 C556.97750244 195.55169189 556.89250488 196.79088379 556.80493164 198.06762695 C556.53224112 202.04480193 556.26524222 206.02232332 556 210 C555.65127938 215.22955149 555.29615489 220.45861772 554.9375 225.6875 C554.85830322 226.9041333 554.77910645 228.1207666 554.69750977 229.37426758 C554.62072998 230.49212646 554.5439502 231.60998535 554.46484375 232.76171875 C554.399021 233.75131592 554.33319824 234.74091309 554.26538086 235.76049805 C554 238 554 238 553 239 C552.79401504 240.67411343 552.65161769 242.35610558 552.53515625 244.03881836 C552.45837646 245.11340805 552.38159668 246.18799774 552.30249023 247.29515076 C552.22329346 248.46489944 552.14409668 249.63464813 552.0625 250.83984375 C551.97750244 252.03227188 551.89250488 253.22470001 551.80493164 254.45326233 C551.53225947 258.28104815 551.26549074 262.10920978 551 265.9375 C550.65066897 270.96780371 550.29573333 275.99766717 549.9375 281.02734375 C549.85830322 282.19506821 549.77910645 283.36279266 549.69750977 284.56590271 C549.62072998 285.64364456 549.5439502 286.72138641 549.46484375 287.83178711 C549.399021 288.78363388 549.33319824 289.73548065 549.26538086 290.71617126 C549 293 549 293 548 295 C547.82697272 296.3560062 547.70499637 297.71874839 547.61108398 299.08251953 C547.55109726 299.92324005 547.49111053 300.76396057 547.42930603 301.63015747 C547.36884598 302.53853363 547.30838593 303.44690979 547.24609375 304.3828125 C547.18092056 305.31221649 547.11574738 306.24162048 547.04859924 307.19918823 C546.84090499 310.17419721 546.63913839 313.14957502 546.4375 316.125 C546.29791561 318.13934995 546.15794658 320.15367329 546.01757812 322.16796875 C545.67391772 327.11168114 545.33557378 332.05573238 545 337 C544.34 337 543.68 337 543 337 C543.01740234 337.82830322 543.03480469 338.65660645 543.05273438 339.51000977 C543.18340475 351.03933722 542.37643551 362.44678349 541.5 373.9375 C541.35496585 375.89254088 541.21043129 377.84761889 541.06640625 379.80273438 C540.71668272 384.53560307 540.36024734 389.26792119 540 394 C539.34 394 538.68 394 538 394 C538.01740234 394.75104004 538.03480469 395.50208008 538.05273438 396.27587891 C538.19352024 407.69126652 537.34254026 418.99787916 536.5 430.375 C536.35501172 432.38277955 536.21047717 434.39059192 536.06640625 436.3984375 C535.71616077 441.2660187 535.35980108 446.13311619 535 451 C534.34 451 533.68 451 533 451 C533.01667725 451.7640918 533.03335449 452.52818359 533.05053711 453.31542969 C533.1688052 463.41449615 532.53721511 473.39826159 531.77319336 483.46337891 C531.55975505 486.28630463 531.3565494 489.10984673 531.15429688 491.93359375 C531.02143169 493.73181514 530.88799014 495.52999407 530.75390625 497.328125 C530.6934462 498.17070862 530.63298615 499.01329224 530.57069397 499.88140869 C530.11524236 505.76951529 530.11524236 505.76951529 529 508 C528.82697272 509.3560062 528.70499637 510.71874839 528.61108398 512.08251953 C528.55109726 512.92324005 528.49111053 513.76396057 528.42930603 514.63015747 C528.36884598 515.53853363 528.30838593 516.44690979 528.24609375 517.3828125 C528.18092056 518.31221649 528.11574738 519.24162048 528.04859924 520.19918823 C527.84090499 523.17419721 527.63913839 526.14957502 527.4375 529.125 C527.29791561 531.13934995 527.15794658 533.15367329 527.01757812 535.16796875 C526.67391772 540.11168114 526.33557378 545.05573238 526 550 C525.34 550 524.68 550 524 550 C524.01740234 551.25490234 524.01740234 551.25490234 524.03515625 552.53515625 C524.21855 576.19295062 524.21855 576.19295062 522 584 C516.28155794 587.95892143 508.83602427 589 502 589 C502 589.66 502 590.32 502 591 C499.75113762 591.50509208 497.50086131 592.00389179 495.25 592.5 C493.99703125 592.7784375 492.7440625 593.056875 491.453125 593.34375 C488 594 488 594 484 594 C484 594.66 484 595.32 484 596 C481.75113762 596.50509208 479.50086131 597.00389179 477.25 597.5 C475.99703125 597.7784375 474.7440625 598.056875 473.453125 598.34375 C470 599 470 599 466 599 C466 599.66 466 600.32 466 601 C464.94683594 601.24234375 463.89367187 601.4846875 462.80859375 601.734375 C445.63991956 605.49765338 445.63991956 605.49765338 429 611 C424.36312217 612.28625721 419.83846462 613.31215901 415 613 C415 613.66 415 614.32 415 615 C413.84242188 615.26554688 412.68484375 615.53109375 411.4921875 615.8046875 C409.95309007 616.16130764 408.41402952 616.51808691 406.875 616.875 C406.11445312 617.04902344 405.35390625 617.22304688 404.5703125 617.40234375 C400.28898017 618.39886076 396.16244512 619.57287596 392 621 C390.46523546 621.40231692 388.92370845 621.78023451 387.375 622.125 C386.64023437 622.29257812 385.90546875 622.46015625 385.1484375 622.6328125 C383 623 383 623 379 623 C379 623.66 379 624.32 379 625 C377.4176994 625.33820166 375.83410625 625.67035939 374.25 626 C373.36828125 626.185625 372.4865625 626.37125 371.578125 626.5625 C369 627 369 627 365 627 C365 627.66 365 628.32 365 629 C362.75113762 629.50509208 360.50086131 630.00389179 358.25 630.5 C356.99703125 630.7784375 355.7440625 631.056875 354.453125 631.34375 C351 632 351 632 347 632 C347 632.66 347 633.32 347 634 C344.75113762 634.50509208 342.50086131 635.00389179 340.25 635.5 C338.99703125 635.7784375 337.7440625 636.056875 336.453125 636.34375 C333 637 333 637 329 637 C329 637.66 329 638.32 329 639 C327.77023437 639.26554688 326.54046875 639.53109375 325.2734375 639.8046875 C323.64058755 640.16128691 322.00777713 640.51806733 320.375 640.875 C319.56675781 641.04902344 318.75851562 641.22304688 317.92578125 641.40234375 C314.45025072 642.16526509 311.0983429 642.96721903 307.71875 644.09375 C305.12430169 644.9585661 302.83953796 645.37822382 300.125 645.625 C299.34382813 645.69976563 298.56265625 645.77453125 297.7578125 645.8515625 C297.17773438 645.90054688 296.59765625 645.94953125 296 646 C296 646.66 296 647.32 296 648 C293.12474331 648.05425013 290.25052354 648.09379277 287.375 648.125 C286.56675781 648.14175781 285.75851562 648.15851562 284.92578125 648.17578125 C280.16900728 648.21445421 276.48763482 647.75716705 272 646 C270.56812844 645.66264806 269.13063177 645.34786504 267.6875 645.0625 C263.76503767 644.22807334 260.06909376 643.04517014 256.28515625 641.73046875 C252.58477642 640.54761229 248.80552456 639.76470352 245 639 C245 638.34 245 637.68 245 637 C243.700625 636.87625 242.40125 636.7525 241.0625 636.625 C233.82260331 635.80923699 227.12076281 634.10443153 220.25 631.71875 C217.29177631 630.77376188 214.29951025 630.1660414 211.26171875 629.53515625 C208.12473889 628.79290022 205.12835108 627.7209009 202.0859375 626.6640625 C199.42470408 625.81685336 196.76661451 625.35469417 194 625 C194 624.34 194 623.68 194 623 C192.88625 622.87625 191.7725 622.7525 190.625 622.625 C185.69539009 622.01542458 180.85755745 621.02526315 176 620 C176 619.34 176 618.68 176 618 C174.88625 617.87625 173.7725 617.7525 172.625 617.625 C167.69539009 617.01542458 162.85755745 616.02526315 158 615 C158 614.34 158 613.68 158 613 C156.700625 612.87625 155.40125 612.7525 154.0625 612.625 C149.28150048 612.10136672 144.66885899 611.13686165 140 610 C140 609.34 140 608.68 140 608 C138.205625 607.87625 138.205625 607.87625 136.375 607.75 C130.85396297 607.14913004 125.70676386 605.57156731 120.3984375 603.98828125 C116.29337834 602.79451117 112.18488467 601.86583821 108 601 C108 600.34 108 599.68 108 599 C106.700625 598.87625 105.40125 598.7525 104.0625 598.625 C99.28150048 598.10136672 94.66885899 597.13686165 90 596 C90 595.34 90 594.68 90 594 C88.700625 593.87625 87.40125 593.7525 86.0625 593.625 C78.02961949 592.7198867 70.6141722 590.65124692 63 588 C61.35469977 587.4567162 59.70887709 586.91501169 58.0625 586.375 C55.93800512 585.67807575 54.00073919 585.00036959 52 584 C49.147686 573.55410832 49.85302586 561.74544299 50 551 C49.34 551 48.68 551 48 551 C47.87153687 549.05395874 47.87153687 549.05395874 47.74047852 547.06860352 C47.4227032 542.27320025 47.09888133 537.47822144 46.77319336 532.68334961 C46.63285952 530.6046851 46.49418451 528.52590793 46.35717773 526.44702148 C46.16041021 523.46567378 45.95775703 520.48477693 45.75390625 517.50390625 C45.6934462 516.56849503 45.63298615 515.6330838 45.57069397 514.66932678 C45.51070724 513.80850998 45.45072052 512.94769318 45.38891602 512.06079102 C45.33784195 511.29912125 45.28676788 510.53745148 45.23414612 509.75270081 C45.17718224 507.97476606 45.17718224 507.97476606 44 507 C43.69545872 504.06604208 43.45059865 501.14849882 43.24609375 498.20703125 C43.18092056 497.30941574 43.11574738 496.41180023 43.04859924 495.48698425 C42.91105062 493.57457533 42.77586626 491.66199516 42.64282227 489.74926758 C42.44147787 486.86939636 42.23011648 483.99039206 42.01757812 481.11132812 C41.2941614 471.0525936 40.77788173 461.08974945 41 451 C40.34 451 39.68 451 39 451 C38.56625769 445.13294309 38.13931277 439.26544232 37.71826172 433.39746094 C37.57455449 431.40742124 37.42909225 429.41750737 37.28173828 427.42773438 C36.45631708 416.26489531 35.74047802 405.20029566 36 394 C35.34 394 34.68 394 34 394 C33.95210831 393.31317642 33.90421661 392.62635284 33.85487366 391.91871643 C33.35741772 384.7975462 32.85357443 377.67684875 32.34594727 370.55639648 C32.15659779 367.89573088 31.96994202 365.2349146 31.78442383 362.57397461 C31.51813811 358.75863287 31.24599453 354.94374838 30.97265625 351.12890625 C30.89032242 349.93100967 30.80798859 348.7331131 30.72315979 347.49891663 C30.64315231 346.3978508 30.56314484 345.29678497 30.48071289 344.16235352 C30.41187393 343.18750504 30.34303497 342.21265656 30.27210999 341.20826721 C30.23338914 339.0282822 30.23338914 339.0282822 29 338 C28.72023172 335.07763583 28.49956679 332.17108808 28.31640625 329.2421875 C28.25597641 328.34694366 28.19554657 327.45169983 28.13328552 326.52932739 C27.87444852 322.69366543 27.62611289 318.85734435 27.37768555 315.02099609 C26.53250135 301.72736426 26.53250135 301.72736426 25 288.5 C23.59798826 278.75484725 23.0733215 268.94369667 22.4375 259.125 C22.19146147 255.33556449 21.93934088 251.54660361 21.68359375 247.7578125 C21.62940781 246.89133087 21.57522186 246.02484924 21.51939392 245.1321106 C21.61259224 241.24676141 21.61259224 241.24676141 20 238 C19.79371817 236.2592243 19.65149646 234.51080914 19.53515625 232.76171875 C19.45837646 231.64385986 19.38159668 230.52600098 19.30249023 229.37426758 C19.22329346 228.15763428 19.14409668 226.94100098 19.0625 225.6875 C18.97750244 224.44830811 18.89250488 223.20911621 18.80493164 221.93237305 C18.48584878 217.27856855 18.17499145 212.62424059 17.86462402 207.96984863 C17.56059135 203.41704862 17.24974363 198.8647458 16.9375 194.3125 C16.85830322 193.0958667 16.77910645 191.8792334 16.69750977 190.62573242 C16.62072998 189.50787354 16.5439502 188.39001465 16.46484375 187.23828125 C16.399021 186.24868408 16.33319824 185.25908691 16.26538086 184.23950195 C16.2380378 182.03170985 16.2380378 182.03170985 15 181 C14.69545872 178.06604208 14.45059865 175.14849882 14.24609375 172.20703125 C14.18092056 171.30941574 14.11574738 170.41180023 14.04859924 169.48698425 C13.91105062 167.57457533 13.77586626 165.66199516 13.64282227 163.74926758 C13.44147787 160.86939636 13.23011648 157.99039206 13.01757812 155.11132812 C12.2941614 145.0525936 11.77788173 135.08974945 12 125 C11.34 125 10.68 125 10 125 C9.91959473 123.77071777 9.83918945 122.54143555 9.75634766 121.27490234 C9.45232203 116.64872099 9.14121313 112.02303705 8.828125 107.39746094 C8.6944013 105.40767805 8.56251683 103.41777057 8.43261719 101.42773438 C7.77987525 91.44580378 7.03057237 81.5898668 5.48632812 71.70019531 C4.3746849 63.2423315 3.98606408 54.69712742 3.4375 46.1875 C3.25023238 43.2957899 3.06137059 40.40423839 2.86671448 37.51301575 C2.74655736 35.72822041 2.63064051 33.9431335 2.51939392 32.15776062 C2.61506619 28.25880375 2.61506619 28.25880375 1 25 C0.75819702 22.88049238 0.58292569 20.75329336 0.4375 18.625 C0.35371094 17.46226563 0.26992188 16.29953125 0.18359375 15.1015625 C-0.04152239 10.07237214 0 5.03422615 0 0 Z " fill="#E44D26" transform="translate(313,0)"/>
<path d="M0 0 C117.81 0 235.62 0 357 0 C357 8.14460779 356.92321175 16.10139684 356.37890625 24.19921875 C356.31468979 25.20032181 356.25047333 26.20142487 356.18431091 27.23286438 C356.04923307 29.32602471 355.91217973 31.41905845 355.77319336 33.51196289 C355.56229192 36.69063619 355.35778439 39.86967243 355.15429688 43.04882812 C355.02120584 45.09898255 354.88775466 47.14911363 354.75390625 49.19921875 C354.6934462 50.13489182 354.63298615 51.07056488 354.57069397 52.03459167 C353.42812715 69.14374569 353.42812715 69.14374569 352 72 C261.58 72 171.16 72 78 72 C78.99 80.415 78.99 80.415 80 89 C80.11739661 92.23310256 80.20563054 95.34658173 80.125 98.5625 C80.11597656 99.29662109 80.10695313 100.03074219 80.09765625 100.78710938 C80.07494008 102.524896 80.03914255 104.26250576 80 106 C80.66 106 81.32 106 82 106 C82.34002182 110.4370135 82.67077776 114.87467316 83 119.3125 C83.09539062 120.55580078 83.19078125 121.79910156 83.2890625 123.08007812 C83.37929688 124.30791016 83.46953125 125.53574219 83.5625 126.80078125 C83.64628906 127.91622314 83.73007812 129.03166504 83.81640625 130.1809082 C84.05361473 135.11528622 84 140.05992366 84 145 C170.13 145 256.26 145 345 145 C345 155.23076923 345 155.23076923 344.5625 159.875 C344.48128906 160.77992188 344.40007812 161.68484375 344.31640625 162.6171875 C344 165 344 165 343 168 C342.71987256 170.8964224 342.48287463 173.78162658 342.28125 176.68359375 C342.21844849 177.53550797 342.15564697 178.38742218 342.09094238 179.26515198 C341.89030504 181.98901589 341.69461007 184.71319925 341.5 187.4375 C341.24359869 191.01983774 340.98249761 194.60179033 340.71875 198.18359375 C340.661427 199.00661484 340.604104 199.82963593 340.54504395 200.67759705 C340.48828491 201.44842117 340.43152588 202.2192453 340.37304688 203.01342773 C340.32498901 203.68832748 340.27693115 204.36322723 340.22741699 205.05857849 C340 207 340 207 339.50474548 208.93157959 C338.91972711 211.3289541 338.72525907 213.61949552 338.55102539 216.08129883 C338.4774733 217.09368118 338.4039212 218.10606354 338.32814026 219.14912415 C338.25208054 220.24073349 338.17602081 221.33234283 338.09765625 222.45703125 C337.92776962 224.79101819 337.75784654 227.12500248 337.58789062 229.45898438 C337.32552799 233.12059051 337.06464216 236.78229661 336.80493164 240.4440918 C335.13241511 263.9087494 335.13241511 263.9087494 333.4621582 275.37817383 C332.5776824 282.30960466 332.19337142 289.28573074 331.73822021 296.25631714 C330.56696699 314.12759095 329.1712722 331.96879129 327.29199219 349.78076172 C327.09812585 351.91815433 326.96797979 354.06232712 326.90332031 356.20751953 C326.79963473 358.91530828 326.66389166 361.37310344 326 364 C322.03514464 367.19707702 317.26257026 367.75659126 312.3125 368.6875 C311.64927734 368.81705078 310.98605469 368.94660156 310.30273438 369.08007812 C307.48516005 369.6163536 304.87479134 370 302 370 C302 370.66 302 371.32 302 372 C300.92621094 372.25394531 299.85242188 372.50789063 298.74609375 372.76953125 C297.30981802 373.1168659 295.87362444 373.46454033 294.4375 373.8125 C293.38079102 374.0609668 293.38079102 374.0609668 292.30273438 374.31445312 C288.30002239 375.29207402 284.77001588 376.55328155 281.00317383 378.25268555 C276.5467508 379.91522191 271.78397407 380.60956722 267.125 381.5 C260.63541898 382.74954666 254.34347105 384.06300364 248.10449219 386.26367188 C244.63143302 387.47883968 241.09593486 388.47690554 237.5625 389.5 C236.06374357 389.9372995 234.56504522 390.37479812 233.06640625 390.8125 C232.00510498 391.121875 232.00510498 391.121875 230.92236328 391.4375 C228.61145364 392.113692 226.30505669 392.80413383 224 393.5 C222.86304688 393.83837891 222.86304688 393.83837891 221.703125 394.18359375 C219.50010543 394.8489566 217.30468407 395.53256744 215.109375 396.22265625 C206.08505046 399.01680287 197.42418297 400.99933398 188 402 C188 402.66 188 403.32 188 404 C179.3361583 404.99091853 171.851706 405.45233335 163.70703125 402.0390625 C160.41649675 400.77602906 157.11781221 399.99767424 153.6875 399.1875 C147.92045583 397.79822133 142.26905383 396.19951083 136.625 394.375 C131.5248331 392.72833961 126.49268108 391.39667949 121.21484375 390.45703125 C118.1848054 389.83178524 115.34368167 388.81570102 112.4296875 387.7890625 C108.60856298 386.54811852 104.7067507 385.66150116 100.796875 384.74609375 C98.08309421 384.02216619 95.601833 383.04749121 93 382 C91.59138949 381.65298829 90.1740532 381.33939923 88.75 381.0625 C84.8302766 380.23558161 81.11197288 379.1122663 77.3359375 377.78125 C71.6829307 375.89061227 65.91370478 374.46594907 60.125 373.0625 C55.74617728 371.99019655 51.43879317 370.88947514 47.1875 369.375 C42.24630544 367.6225996 37.15956699 366.84166682 32 366 C30.72569204 353.63480695 29.6512559 341.43853948 30 329 C29.34 329 28.68 329 28 329 C27.56609527 323.27538106 27.13916272 317.55029678 26.71826172 311.82470703 C26.57459842 309.88316342 26.42913845 307.94175177 26.28173828 306.00048828 C25.44608409 294.97781151 24.74565914 284.06147253 25 273 C24.34 273 23.68 273 23 273 C21.62795441 265.79676063 22 259.68252177 22 252 C45.76 252 69.52 252 94 252 C97.4727459 279.78196721 97.4727459 279.78196721 98.1875 289.5 C98.26935547 290.51707031 98.35121094 291.53414063 98.43554688 292.58203125 C98.85931683 298.07323526 99.08522887 303.49290371 99 309 C99.59167969 309.12117188 100.18335938 309.24234375 100.79296875 309.3671875 C101.58316406 309.53476562 102.37335938 309.70234375 103.1875 309.875 C104.35345703 310.11863281 104.35345703 310.11863281 105.54296875 310.3671875 C108 311 108 311 110.24609375 311.9453125 C114.03783283 313.39746789 117.90803577 314.16622098 121.875 315 C127.31639537 316.15505573 132.66319148 317.41284505 138 319 C139.175625 319.33 140.35125 319.66 141.5625 320 C143.65980521 320.61012515 145.74732668 321.25741252 147.8125 321.96875 C151.00191401 323.00061924 154.16522725 323.77719305 157.4375 324.5 C162.67799296 325.68179682 167.82342115 326.97529715 172.9375 328.625 C180.04514286 329.9172987 185.60526113 328.41361618 192.40625 326.34375 C199.6426026 324.17284422 206.99499659 322.40350891 214.31762695 320.55053711 C219.16514514 319.31063672 223.96244392 318.06598742 228.6875 316.4140625 C233.43567745 314.7730324 238.25427129 313.84497508 243.1875 312.9375 C244.91085668 312.61702516 246.6335379 312.29289331 248.35546875 311.96484375 C249.47924927 311.75782837 249.47924927 311.75782837 250.62573242 311.54663086 C253.4899064 310.88720818 256.22469659 309.96244191 259 309 C258.97389648 307.93712769 258.97389648 307.93712769 258.94726562 306.8527832 C258.81186137 296.57092584 259.63939194 286.42527043 260.5 276.1875 C260.64501162 274.41605488 260.78954618 272.64457065 260.93359375 270.87304688 C261.28357391 266.58156121 261.63997191 262.29065391 262 258 C262.66 258 263.32 258 264 258 C263.97679687 256.88367188 263.95359375 255.76734375 263.9296875 254.6171875 C263.8024941 245.45038852 264.10918197 236.44705277 265.0078125 227.3203125 C265.10263916 226.32008057 265.19746582 225.31984863 265.29516602 224.28930664 C265.52612755 221.85912648 265.76111712 219.42941202 266 217 C264.09192487 217.00138269 264.09192487 217.00138269 262.14530277 217.00279331 C231.98088464 217.02442945 201.81646859 217.04092962 171.65204457 217.05106533 C167.94307853 217.05231611 164.2341125 217.05361042 160.52514648 217.05493164 C159.41751718 217.05532511 159.41751718 217.05532511 158.28751152 217.05572652 C146.31541081 217.06008334 134.34331489 217.06797095 122.37121702 217.0771528 C110.09588779 217.08648901 97.82056106 217.09205554 85.54522842 217.09408849 C77.96459392 217.09546379 70.38397292 217.09981473 62.80334257 217.10791647 C57.00031515 217.11380422 51.19729473 217.11445905 45.39426422 217.11310768 C43.00648604 217.11338421 40.61870738 217.11539188 38.23093224 217.11920547 C34.98637875 217.12413597 31.74188439 217.12300068 28.49732971 217.12025452 C27.53917832 217.12316736 26.58102694 217.1260802 25.59384066 217.12908131 C19.11412121 217.11412121 19.11412121 217.11412121 18 216 C17.720599 213.28448204 17.4998906 210.58577568 17.31640625 207.86328125 C17.25597641 207.03225388 17.19554657 206.2012265 17.13328552 205.34501648 C16.87449232 201.78509731 16.6261338 198.22447235 16.37768555 194.66381836 C15.70769435 185.14461889 14.90508703 175.74762748 13.45288086 166.30932617 C12.47961505 159.19740268 12.20357099 152.01725431 11.7890625 144.85546875 C11.71429688 143.65535156 11.63953125 142.45523438 11.5625 141.21875 C11.50191406 140.16623047 11.44132812 139.11371094 11.37890625 138.02929688 C11.10720685 134.53099066 10.57017309 131.08973282 10.04101562 127.62182617 C8.94937583 120.14279697 8.38585029 112.68946173 7.9236908 105.15149879 C7.77714781 102.76523234 7.62336423 100.37952088 7.46789551 97.99382019 C7.08365239 92.07732346 6.7103166 86.16015191 6.33856201 80.24285889 C6.02244963 75.21484215 5.70116053 70.18721033 5.37278748 65.15997887 C5.22265623 62.83015051 5.07999513 60.49994518 4.93762207 58.16963196 C4.48840077 51.11949078 3.83600904 44.23206118 2.44256592 37.29289246 C1.8496137 34.22086269 1.58074826 31.16627013 1.3671875 28.046875 C1.28339844 26.850625 1.19960938 25.654375 1.11328125 24.421875 C1.03464844 23.21015625 0.95601563 21.9984375 0.875 20.75 C0.78863281 19.5228125 0.70226562 18.295625 0.61328125 17.03125 C0.2238986 11.32030448 0 5.7347962 0 0 Z " fill="#FEFEFE" transform="translate(421,119)"/>
<path d="M0 0 C76.89 0 153.78 0 233 0 C233 16.3488806 233 16.3488806 232.5625 23.8125 C232.50352539 24.99295898 232.50352539 24.99295898 232.44335938 26.19726562 C232.12434896 31.87565104 232.12434896 31.87565104 231 33 C230.79464567 34.91714422 230.65190531 36.84105179 230.53515625 38.765625 C230.45716797 39.96703125 230.37917969 41.1684375 230.29882812 42.40625 C230.14416194 44.92181247 229.99047728 47.43743553 229.83789062 49.953125 C229.45840536 55.77806954 228.98293441 61.50480443 228.02734375 67.265625 C226.79231222 74.80774971 226.23380296 82.36900721 225.68218994 89.98547363 C225.49484703 92.57111961 225.30048724 95.15617028 225.10498047 97.74121094 C224.5361916 105.31963303 223.99306834 112.89808394 223.5390625 120.484375 C222.64946741 135.17426074 221.11330419 149.66954552 219.29608154 164.2671814 C216.81178807 184.46269872 215.50895802 204.72711154 214.25634766 225.02783203 C214.13959183 226.89629539 214.13959183 226.89629539 214.02047729 228.80250549 C213.87435398 231.16009255 213.73250737 233.51794961 213.5954895 235.87608337 C213.53142914 236.91994705 213.46736877 237.96381073 213.40136719 239.03930664 C213.34760925 239.95329727 213.29385132 240.8672879 213.23846436 241.80897522 C213 244 213 244 212 246 C211.72674484 248.59004054 211.5035122 251.16520429 211.31640625 253.76171875 C211.25597641 254.54456741 211.19554657 255.32741608 211.13328552 256.13398743 C210.87521736 259.47892152 210.62673962 262.82455059 210.37768555 266.17016602 C209.76912434 274.28136002 209.14894378 282.35383924 208 290.41015625 C206.67288197 299.81907468 206.08763839 309.27532792 205.4375 318.75 C205.24980275 321.47173062 205.06068059 324.19332038 204.86671448 326.91461182 C204.74721583 328.59155593 204.6312772 330.26875862 204.51939392 331.94622803 C204.29140545 335.14977596 204.02024313 337.93927062 203 341 C202.73049526 343.98647359 202.50574731 346.96146241 202.31640625 349.953125 C202.19208555 351.78906441 202.06773559 353.62500185 201.94335938 355.4609375 C201.75333699 358.33682052 201.56492168 361.21280146 201.37768555 364.08886719 C200.71596405 374.17508044 199.92088014 384.14071981 198.48413086 394.14794922 C197.47086065 402.21016678 197.03852715 410.33214715 196.5 418.4375 C195.20202557 437.93393408 195.20202557 437.93393408 194 446.953125 C193.18326633 453.10463567 192.63714283 459.23471419 192.21875 465.42578125 C192.15844604 466.31631699 192.09814209 467.20685272 192.03601074 468.12437439 C191.79148047 471.79433311 191.55323479 475.46462966 191.32275391 479.13549805 C191.14996005 481.85782982 190.96631765 484.57926039 190.78125 487.30078125 C190.73222534 488.13192947 190.68320068 488.9630777 190.63269043 489.81941223 C190.36753341 493.63379182 190.16089896 495.75865155 188 499 C185.57421875 499.87890625 185.57421875 499.87890625 182.6875 500.5625 C179.85540751 501.24637499 177.19305074 501.92151675 174.4921875 503.01953125 C171.80807359 504.0755071 169.27610289 504.6275536 166.4375 505.125 C165.50808594 505.29257812 164.57867188 505.46015625 163.62109375 505.6328125 C161 506 161 506 157 506 C157 506.66 157 507.32 157 508 C155.68229167 508.32942708 154.36458333 508.65885417 153.046875 508.98828125 C151.78423828 509.30406128 151.78423828 509.30406128 150.49609375 509.6262207 C148.66030918 510.08500364 146.82437063 510.5431709 144.98828125 511.00073242 C141.03519965 511.98654967 137.084568 512.97808764 133.140625 514 C132.10421875 514.268125 131.0678125 514.53625 130 514.8125 C129.113125 515.04582031 128.22625 515.27914062 127.3125 515.51953125 C125 516 125 516 121 516 C121 516.66 121 517.32 121 518 C118.75113762 518.50509208 116.50086131 519.00389179 114.25 519.5 C112.99703125 519.7784375 111.7440625 520.056875 110.453125 520.34375 C107 521 107 521 103 521 C103 521.66 103 522.32 103 523 C100.56318413 523.50354867 98.12564561 524.00296756 95.6875 524.5 C94.99720703 524.64308594 94.30691406 524.78617188 93.59570312 524.93359375 C90.67475227 525.52625044 87.98891878 526 85 526 C85 526.66 85 527.32 85 528 C83.989375 528.2475 82.97875 528.495 81.9375 528.75 C77.81691957 529.77465588 73.72262092 530.88737345 69.625 532 C65.31513485 533.1669118 61.01693985 534.24587368 56.625 535.0625 C53.58425716 535.62841509 50.74160466 536.36650487 47.82421875 537.390625 C42.99539396 539.03260472 38.119377 540.39293118 33.1875 541.6875 C32.35541016 541.91244141 31.52332031 542.13738281 30.66601562 542.36914062 C29.86228516 542.58119141 29.05855469 542.79324219 28.23046875 543.01171875 C27.51270264 543.20209717 26.79493652 543.39247559 26.05541992 543.58862305 C24 544 24 544 20 544 C20 544.66 20 545.32 20 546 C17.23010036 546.67076489 14.45920258 547.33676317 11.6875 548 C10.90181641 548.19078125 10.11613281 548.3815625 9.30664062 548.578125 C8.54931641 548.75859375 7.79199219 548.9390625 7.01171875 549.125 C5.96697388 549.37636719 5.96697388 549.37636719 4.90112305 549.6328125 C3 550 3 550 0 550 C0 525.91 0 501.82 0 477 C-1.65 477 -3.3 477 -5 477 C-5.33 476.34 -5.66 475.68 -6 475 C-1.05 475 3.9 475 9 475 C9 474.34 9 473.68 9 473 C9.54188965 472.87471924 10.0837793 472.74943848 10.64208984 472.62036133 C26.97271452 468.82913924 43.11437574 464.89441459 58.8671875 459.1171875 C67.84326293 455.9162429 77.20901455 453.96484265 86.47680664 451.80078125 C93.38758214 450.18059759 100.1282662 448.34236114 106.8125 445.9375 C112.21803925 444.10384293 117.31034013 443.25175486 123 443 C123 442.34 123 441.68 123 441 C124.24136719 440.73445313 125.48273438 440.46890625 126.76171875 440.1953125 C128.40369522 439.83876904 130.04561959 439.48198556 131.6875 439.125 C132.50412109 438.95097656 133.32074219 438.77695312 134.16210938 438.59765625 C134.95810547 438.42363281 135.75410156 438.24960937 136.57421875 438.0703125 C137.66609497 437.83465576 137.66609497 437.83465576 138.7800293 437.59423828 C141.28292052 436.92426828 143.61274535 436.00187628 146 435 C146.07516846 434.07703125 146.15033691 433.1540625 146.2277832 432.203125 C146.58739254 427.80191984 146.94914583 423.40089742 147.3125 419 C147.37936005 418.18990479 147.44622009 417.37980957 147.5151062 416.54516602 C148.56404018 403.87378172 149.7218953 391.21668174 150.94238281 378.56079102 C151.88761118 368.59910655 152.64905939 358.63196218 153.26586914 348.64453125 C153.62932538 343.05580151 154.1712552 337.55275814 154.96484375 332.0078125 C156.43327813 321.44416525 156.99433583 310.8142991 157.67724609 300.17651367 C158.3053199 290.48955072 159.04984689 280.93576057 160.54052734 271.33569336 C161.38712612 265.18953018 161.69612452 259.00265269 162.0625 252.8125 C162.21645781 250.2562914 162.3738384 247.70028593 162.53515625 245.14453125 C162.600979 244.03440674 162.66680176 242.92428223 162.73461914 241.78051758 C163 239 163 239 164 236 C164.66 229.4 165.32 222.8 166 216 C79.87 216 -6.26 216 -95 216 C-97.32142857 186.98214286 -97.32142857 186.98214286 -97 177 C-97.66 177 -98.32 177 -99 177 C-99.33686543 172.4585881 -99.66887125 167.9168335 -100 163.375 C-100.09539062 162.08980469 -100.19078125 160.80460938 -100.2890625 159.48046875 C-100.37929688 158.23652344 -100.46953125 156.99257812 -100.5625 155.7109375 C-100.64628906 154.56931152 -100.73007812 153.42768555 -100.81640625 152.25146484 C-100.99029134 149.17194136 -101 146.08442879 -101 143 C-10.58 143 79.84 143 173 143 C174.65 119.24 176.3 95.48 178 71 C60.19 71 -57.62 71 -179 71 C-178.34 76.94 -177.68 82.88 -177 89 C-176.5 97.9375 -176.5 97.9375 -176.34375 101.83984375 C-176.1521497 104.99855547 -175.64944961 108.00901053 -175.0390625 111.11328125 C-173.76427382 117.78978524 -173.31466722 124.47480022 -172.875 131.25 C-172.78863281 132.4771875 -172.70226562 133.704375 -172.61328125 134.96875 C-172.22551428 140.6559989 -171.8819366 146.29922423 -172 152 C-172.33 152 -172.66 152 -173 152 C-173.08564209 151.15703369 -173.17128418 150.31406738 -173.25952148 149.44555664 C-173.57842728 146.32734269 -173.90126489 143.2095686 -174.22680664 140.09204102 C-174.36706601 138.7409679 -174.50574267 137.38972952 -174.64282227 136.03833008 C-174.83977794 134.09934768 -175.0428415 132.16098873 -175.24609375 130.22265625 C-175.36654053 129.05484619 -175.4869873 127.88703613 -175.61108398 126.68383789 C-175.71420564 124.08633119 -175.71420564 124.08633119 -177 123 C-177.18009632 121.66927071 -177.29795648 120.33001103 -177.38891602 118.99023438 C-177.44890274 118.13844604 -177.50888947 117.28665771 -177.57069397 116.40905762 C-177.66138405 115.01548035 -177.66138405 115.01548035 -177.75390625 113.59375 C-177.81907944 112.63988403 -177.88425262 111.68601807 -177.95140076 110.70324707 C-178.08888124 108.67568652 -178.22406989 106.6479695 -178.35717773 104.62011719 C-178.55982848 101.54059697 -178.77051907 98.46170833 -178.98242188 95.3828125 C-179.11506842 93.41149091 -179.24724434 91.44013759 -179.37890625 89.46875 C-179.44139053 88.55589233 -179.50387482 87.64303467 -179.56825256 86.70251465 C-179.62508713 85.82550903 -179.68192169 84.94850342 -179.74047852 84.04492188 C-179.79075699 83.28626831 -179.84103546 82.52761475 -179.89283752 81.74597168 C-180.0455245 77.83346304 -180 73.91548684 -180 70 C-120.6 70 -61.2 70 0 70 C0 46.9 0 23.8 0 0 Z " fill="#F06529" transform="translate(600,48)"/>
<path d="M0 0 C117.81 0 235.62 0 357 0 C357 8.14460779 356.92321175 16.10139684 356.37890625 24.19921875 C356.31468979 25.20032181 356.25047333 26.20142487 356.18431091 27.23286438 C356.04923307 29.32602471 355.91217973 31.41905845 355.77319336 33.51196289 C355.56229192 36.69063619 355.35778439 39.86967243 355.15429688 43.04882812 C355.02120584 45.09898255 354.88775466 47.14911363 354.75390625 49.19921875 C354.6934462 50.13489182 354.63298615 51.07056488 354.57069397 52.03459167 C353.42812715 69.14374569 353.42812715 69.14374569 352 72 C261.58 72 171.16 72 78 72 C78.99 80.415 78.99 80.415 80 89 C80.11739661 92.23310256 80.20563054 95.34658173 80.125 98.5625 C80.11597656 99.29662109 80.10695313 100.03074219 80.09765625 100.78710938 C80.07494008 102.524896 80.03914255 104.26250576 80 106 C80.66 106 81.32 106 82 106 C82.34002182 110.4370135 82.67077776 114.87467316 83 119.3125 C83.09539062 120.55580078 83.19078125 121.79910156 83.2890625 123.08007812 C83.37929688 124.30791016 83.46953125 125.53574219 83.5625 126.80078125 C83.64628906 127.91622314 83.73007812 129.03166504 83.81640625 130.1809082 C84.05361473 135.11528622 84 140.05992366 84 145 C170.13 145 256.26 145 345 145 C345 155.125 345 155.125 344.5 160.0625 C344.4071875 161.00222656 344.314375 161.94195312 344.21875 162.91015625 C344.1465625 163.59980469 344.074375 164.28945313 344 165 C343.67 165 343.34 165 343 165 C342.9727384 162.95840905 342.95348655 160.91671037 342.9375 158.875 C342.92589844 157.73804688 342.91429687 156.60109375 342.90234375 155.4296875 C343 152 343 152 344 146 C289.55 146 235.1 146 179 146 C179 169.1 179 192.2 179 216 C207.71 216 236.42 216 266 216 C266 216.33 266 216.66 266 217 C234.55068285 217.02278979 203.10136804 217.04049788 171.65204457 217.05106533 C167.94307853 217.05231611 164.2341125 217.05361042 160.52514648 217.05493164 C159.41751718 217.05532511 159.41751718 217.05532511 158.28751152 217.05572652 C146.31541081 217.06008334 134.34331489 217.06797095 122.37121702 217.0771528 C110.09588779 217.08648901 97.82056106 217.09205554 85.54522842 217.09408849 C77.96459392 217.09546379 70.38397292 217.09981473 62.80334257 217.10791647 C57.00031515 217.11380422 51.19729473 217.11445905 45.39426422 217.11310768 C43.00648604 217.11338421 40.61870738 217.11539188 38.23093224 217.11920547 C34.98637875 217.12413597 31.74188439 217.12300068 28.49732971 217.12025452 C27.53917832 217.12316736 26.58102694 217.1260802 25.59384066 217.12908131 C19.11412121 217.11412121 19.11412121 217.11412121 18 216 C17.720599 213.28448204 17.4998906 210.58577568 17.31640625 207.86328125 C17.25597641 207.03225388 17.19554657 206.2012265 17.13328552 205.34501648 C16.87449232 201.78509731 16.6261338 198.22447235 16.37768555 194.66381836 C15.70769435 185.14461889 14.90508703 175.74762748 13.45288086 166.30932617 C12.47961505 159.19740268 12.20357099 152.01725431 11.7890625 144.85546875 C11.71429688 143.65535156 11.63953125 142.45523438 11.5625 141.21875 C11.50191406 140.16623047 11.44132812 139.11371094 11.37890625 138.02929688 C11.10720685 134.53099066 10.57017309 131.08973282 10.04101562 127.62182617 C8.94937583 120.14279697 8.38585029 112.68946173 7.9236908 105.15149879 C7.77714781 102.76523234 7.62336423 100.37952088 7.46789551 97.99382019 C7.08365239 92.07732346 6.7103166 86.16015191 6.33856201 80.24285889 C6.02244963 75.21484215 5.70116053 70.18721033 5.37278748 65.15997887 C5.22265623 62.83015051 5.07999513 60.49994518 4.93762207 58.16963196 C4.48840077 51.11949078 3.83600904 44.23206118 2.44256592 37.29289246 C1.8496137 34.22086269 1.58074826 31.16627013 1.3671875 28.046875 C1.28339844 26.850625 1.19960938 25.654375 1.11328125 24.421875 C1.03464844 23.21015625 0.95601563 21.9984375 0.875 20.75 C0.78863281 19.5228125 0.70226562 18.295625 0.61328125 17.03125 C0.2238986 11.32030448 0 5.7347962 0 0 Z " fill="#EBE9E8" transform="translate(421,119)"/>
<path d="M0 0 C23.76 0 47.52 0 72 0 C75.4727459 27.78196721 75.4727459 27.78196721 76.1875 37.5 C76.26935547 38.51707031 76.35121094 39.53414063 76.43554688 40.58203125 C76.85931683 46.07323526 77.08522887 51.49290371 77 57 C77.88751953 57.18175781 77.88751953 57.18175781 78.79296875 57.3671875 C79.58316406 57.53476562 80.37335938 57.70234375 81.1875 57.875 C81.96480469 58.03742188 82.74210938 58.19984375 83.54296875 58.3671875 C86 59 86 59 88.24609375 59.9453125 C92.03783283 61.39746789 95.90803577 62.16622098 99.875 63 C105.31639537 64.15505573 110.66319148 65.41284505 116 67 C117.175625 67.33 118.35125 67.66 119.5625 68 C121.65980521 68.61012515 123.74732668 69.25741252 125.8125 69.96875 C129.00191401 71.00061924 132.16522725 71.77719305 135.4375 72.5 C140.01310367 73.53185595 144.50629859 74.66145064 149 76 C152.1581378 76.93746827 154.95840661 77.10581044 158.25 77.0625 C159.14203125 77.05347656 160.0340625 77.04445313 160.953125 77.03515625 C161.62859375 77.02355469 162.3040625 77.01195312 163 77 C162.67 77.66 162.34 78.32 162 79 C160.35 79 158.7 79 157 79 C157 103.09 157 127.18 157 152 C157.99 152.33 158.98 152.66 160 153 C147.21378496 152.43475574 147.21378496 152.43475574 141.32421875 149.87890625 C138.12153379 148.6678069 134.82489743 147.91641647 131.5 147.125 C125.7942493 145.75666467 120.20786847 144.1799126 114.625 142.375 C109.52484389 140.72832383 104.49267708 139.39667878 99.21484375 138.45703125 C96.1848054 137.83178524 93.34368167 136.81570102 90.4296875 135.7890625 C86.60856298 134.54811852 82.7067507 133.66150116 78.796875 132.74609375 C76.08309421 132.02216619 73.601833 131.04749121 71 130 C69.59138949 129.65298829 68.1740532 129.33939923 66.75 129.0625 C62.8302766 128.23558161 59.11197288 127.1122663 55.3359375 125.78125 C49.6829307 123.89061227 43.91370478 122.46594907 38.125 121.0625 C33.74617728 119.99019655 29.43879317 118.88947514 25.1875 117.375 C20.24630544 115.6225996 15.15956699 114.84166682 10 114 C8.72569204 101.63480695 7.6512559 89.43853948 8 77 C7.34 77 6.68 77 6 77 C5.56609527 71.27538106 5.13916272 65.55029678 4.71826172 59.82470703 C4.57459842 57.88316342 4.42913845 55.94175177 4.28173828 54.00048828 C3.44608409 42.97781151 2.74565914 32.06147253 3 21 C2.34 21 1.68 21 1 21 C-0.37204559 13.79676063 0 7.68252177 0 0 Z " fill="#EBE9E9" transform="translate(443,371)"/>
<path d="M0 0 C58.74 0 117.48 0 178 0 C178 14.64308012 178 14.64308012 177.59765625 19.6328125 C177.51193359 20.7053125 177.42621094 21.7778125 177.33789062 22.8828125 C177.24701172 23.95273438 177.15613281 25.02265625 177.0625 26.125 C176.93198242 27.78789062 176.93198242 27.78789062 176.79882812 29.484375 C176.13209367 37.60371898 176.13209367 37.60371898 175 41 C174.79554373 42.85820931 174.63462165 44.72136752 174.5 46.5859375 C174.4175 47.68164062 174.335 48.77734375 174.25 49.90625 C174.1675 51.0509375 174.085 52.195625 174 53.375 C173.83615283 55.63301886 173.66958462 57.89084229 173.5 60.1484375 C173.4278125 61.15052246 173.355625 62.15260742 173.28125 63.18505859 C173 66 173 66 172 71 C115.24 71 58.48 71 0 71 C0 47.57 0 24.14 0 0 Z " fill="#FEFEFE" transform="translate(600,119)"/>
<path d="M0 0 C122.76 0.495 122.76 0.495 248 1 C247.37860248 14.67074551 246.74158474 28.33590663 246 42 C245.34 42 244.68 42 244 42 C244.01305176 42.71075684 244.02610352 43.42151367 244.03955078 44.15380859 C244.13155649 53.48435576 243.70068884 62.74566277 243.04785156 72.05126953 C242.93146567 73.78423569 242.82720229 75.51805377 242.734375 77.25244141 C242.59779912 79.78810543 242.42421881 82.31880614 242.2421875 84.8515625 C242.20753387 85.62650055 242.17288025 86.4014386 242.13717651 87.19985962 C241.95654297 89.37744141 241.95654297 89.37744141 241 93 C237.60937016 95.36426737 234.25404942 96.36959897 230.2265625 97.140625 C229.33138916 97.32052979 228.43621582 97.50043457 227.51391602 97.68579102 C226.56057373 97.87197998 225.60723145 98.05816895 224.625 98.25 C215.1035615 100.20721432 205.83744444 102.67966304 196.5300293 105.47241211 C189.50671526 107.5771469 182.4686343 109.46518113 175.33984375 111.17578125 C172.98265985 111.75749564 170.64184661 112.40759004 168.31640625 113.10546875 C165 114 165 114 161 114 C161 77.04 161 40.08 161 2 C107.87 2 54.74 2 0 2 C0 1.34 0 0.68 0 0 Z " fill="#F0652A" transform="translate(439,335)"/>
<path d="M0 0 C33 0 66 0 100 0 C100 23.43 100 46.86 100 71 C68.98 71 37.96 71 6 71 C3.43862121 58.19310606 2.82212681 46.00450625 3 33 C2.34 33 1.68 33 1 33 C0.67 22.11 0.34 11.22 0 0 Z " fill="#E44D26" transform="translate(500,192)"/>
<path d="M0 0 C118.47 0 236.94 0 359 0 C359 4.62 359 9.24 359 14 C358.67 14 358.34 14 358 14 C358 9.71 358 5.42 358 1 C240.19 1 122.38 1 1 1 C1.66 6.94 2.32 12.88 3 19 C3.5 27.9375 3.5 27.9375 3.65625 31.83984375 C3.8478503 34.99855547 4.35055039 38.00901053 4.9609375 41.11328125 C6.23572618 47.78978524 6.68533278 54.47480022 7.125 61.25 C7.21136719 62.4771875 7.29773438 63.704375 7.38671875 64.96875 C7.77448572 70.6559989 8.1180634 76.29922423 8 82 C7.67 82 7.34 82 7 82 C6.91435791 81.15703369 6.82871582 80.31406738 6.74047852 79.44555664 C6.42157272 76.32734269 6.09873511 73.2095686 5.77319336 70.09204102 C5.63293399 68.7409679 5.49425733 67.38972952 5.35717773 66.03833008 C5.16022206 64.09934768 4.9571585 62.16098873 4.75390625 60.22265625 C4.63345947 59.05484619 4.5130127 57.88703613 4.38891602 56.68383789 C4.28579436 54.08633119 4.28579436 54.08633119 3 53 C2.81990368 51.66927071 2.70204352 50.33001103 2.61108398 48.99023438 C2.55109726 48.13844604 2.49111053 47.28665771 2.42930603 46.40905762 C2.36884598 45.4800061 2.30838593 44.55095459 2.24609375 43.59375 C2.18092056 42.63988403 2.11574738 41.68601807 2.04859924 40.70324707 C1.91111876 38.67568652 1.77593011 36.6479695 1.64282227 34.62011719 C1.44017152 31.54059697 1.22948093 28.46170833 1.01757812 25.3828125 C0.88493158 23.41149091 0.75275566 21.44013759 0.62109375 19.46875 C0.55860947 18.55589233 0.49612518 17.64303467 0.43174744 16.70251465 C0.37491287 15.82550903 0.31807831 14.94850342 0.25952148 14.04492188 C0.20924301 13.28626831 0.15896454 12.52761475 0.10716248 11.74597168 C-0.0455245 7.83346304 0 3.91548684 0 0 Z " fill="#EC7046" transform="translate(420,118)"/>
<path d="M0 0 C0.33 0 0.66 0 1 0 C2.23842339 10.28011648 3.24189246 20.49126424 3.65625 30.83984375 C3.8478503 33.99855547 4.35055039 37.00901053 4.9609375 40.11328125 C6.23572618 46.78978524 6.68533278 53.47480022 7.125 60.25 C7.21136719 61.4771875 7.29773438 62.704375 7.38671875 63.96875 C7.77448572 69.6559989 8.1180634 75.29922423 8 81 C7.67 81 7.34 81 7 81 C6.91435791 80.15703369 6.82871582 79.31406738 6.74047852 78.44555664 C6.42157272 75.32734269 6.09873511 72.2095686 5.77319336 69.09204102 C5.63293399 67.7409679 5.49425733 66.38972952 5.35717773 65.03833008 C5.16022206 63.09934768 4.9571585 61.16098873 4.75390625 59.22265625 C4.63345947 58.05484619 4.5130127 56.88703613 4.38891602 55.68383789 C4.28579436 53.08633119 4.28579436 53.08633119 3 52 C2.81988553 50.66396025 2.70203716 49.31941949 2.61108398 47.97436523 C2.55109726 47.11934921 2.49111053 46.26433319 2.42930603 45.38340759 C2.33861595 43.98512474 2.33861595 43.98512474 2.24609375 42.55859375 C2.14833397 41.12423729 2.14833397 41.12423729 2.04859924 39.66090393 C1.91113207 37.629146 1.77594259 35.59723291 1.64282227 33.56518555 C1.43994194 30.47469821 1.22937002 27.38480987 1.01757812 24.29492188 C0.88495457 22.32034348 0.75277918 20.34573493 0.62109375 18.37109375 C0.55860947 17.4530748 0.49612518 16.53505585 0.43174744 15.58921814 C0.09415038 10.37936003 -0.06046364 5.22078838 0 0 Z " fill="#E78B73" transform="translate(420,119)"/>
<path d="M0 0 C-5.56936486 3.31151424 -12.83373338 5.80817212 -19.3359375 4.546875 C-20.15964844 4.27617187 -20.15964844 4.27617187 -21 4 C-20.02417969 3.72285156 -19.04835938 3.44570313 -18.04296875 3.16015625 C-16.75780249 2.794306 -15.47264679 2.42841864 -14.1875 2.0625 C-12.92292969 1.70285156 -11.65835938 1.34320313 -10.35546875 0.97265625 C-3.38061798 -1.0491573 -3.38061798 -1.0491573 0 0 Z " fill="#F7A481" transform="translate(680,503)"/>
</svg>
