<?xml version="1.0" encoding="UTF-8"?>
<svg version="1.1" xmlns="http://www.w3.org/2000/svg" width="256" height="256">
<path d="M0 0 C73.26 0 146.52 0 222 0 C220.85127988 21.82568231 220.85127988 21.82568231 220.203125 28.91316223 C220.0926458 30.16847961 220.0926458 30.16847961 219.97993469 31.44915694 C219.73984007 34.1679801 219.49497435 36.8863489 219.25 39.60473633 C219.07385045 41.58790076 218.89799676 43.5710915 218.72241211 45.55430603 C218.25036341 50.87601237 217.77406974 56.19733052 217.29681396 61.51857209 C216.7959236 67.11022193 216.29861258 72.7021903 215.80078125 78.29411316 C214.96593 87.66544679 214.12835436 97.03653379 213.2890625 106.4074707 C212.31936 117.23479783 211.35375631 128.06248453 210.3903656 138.89037496 C209.46082094 149.33704532 208.52866096 159.78348065 207.59521484 170.22980309 C207.19889706 174.66539134 206.80344785 179.10105575 206.40869141 183.53678322 C205.94460537 188.74999326 205.47821485 193.96299216 205.01004028 199.17583656 C204.83872712 201.08736631 204.66819583 202.99896631 204.49850464 204.91064072 C204.26676383 207.51983219 204.03218129 210.12875313 203.796875 212.73762512 C203.73043289 213.49315935 203.66399078 214.24869359 203.59553528 215.0271228 C202.80561141 223.70450894 202.80561141 223.70450894 202 227 C197.09429132 230.27047245 193.79893651 231.40740795 188 232 C186.66571189 232.18058035 185.33226221 232.3675348 184 232.5625 C183.01 232.706875 182.02 232.85125 181 233 C181 233.66 181 234.32 181 235 C176.07346194 236.60866549 172.22007289 237 167 237 C164.33289055 238.03720923 162.40444058 239.39703961 160 241 C158.09672728 240.97797952 156.19340255 240.95293057 154.29055786 240.9069519 C150.04509314 241.07941313 146.10288929 242.43568624 142.05859375 243.66015625 C140.15693687 244.21171209 138.25524304 244.76314055 136.35351562 245.31445312 C133.3878097 246.18825304 130.42353306 247.06665629 127.46020508 247.94848633 C124.5796158 248.80157934 121.69449686 249.6377479 118.80859375 250.47265625 C117.92924667 250.74030289 117.0498996 251.00794952 116.14390564 251.28370667 C110.96632934 252.77470244 107.27440354 253.20207336 102 252 C102 251.34 102 250.68 102 250 C101.01694382 249.72660294 100.03388763 249.45320587 99.02104187 249.17152405 C89.76529693 246.59730792 80.50977561 244.02228923 71.25447369 241.44648075 C66.49601498 240.1221998 61.73747743 238.79820363 56.97875977 237.47485352 C52.38799067 236.19819696 47.7974286 234.92079857 43.20701027 233.64288139 C41.4539713 233.15499782 39.70085737 232.66738347 37.94766808 232.18004036 C35.49575733 231.49842093 33.04411266 230.81585247 30.5925293 230.13305664 C29.86460678 229.93093567 29.13668427 229.7288147 28.38670349 229.52056885 C25.56823748 228.73472634 22.7764218 227.92547393 20 227 C17.39177181 203.98422746 15.31255571 180.92693509 13.26302361 157.85596561 C12.89109108 153.6724163 12.51761448 149.48900535 12.14417428 145.30559039 C11.26399183 135.44497817 10.3863974 125.58413806 9.51049805 115.72314453 C8.60924526 105.57724273 7.70351567 95.43174737 6.79566032 85.28643441 C6.011733 76.52426098 5.23054234 67.76184649 4.45154923 58.99923301 C3.98814141 53.78682555 3.5237129 48.57451436 3.0566349 43.36243439 C2.61924767 38.48034056 2.18528564 33.5979541 1.7539444 28.71532249 C1.59553144 26.92861075 1.43592128 25.14200467 1.27500725 23.35551643 C1.05512466 20.91219519 0.83962982 18.46852407 0.62519836 16.02471924 C0.5610986 15.3239502 0.49699884 14.62318116 0.43095666 13.90117669 C0.02603645 9.21451413 0 4.74370934 0 0 Z M188 230 C192 231 192 231 192 231 Z " fill="#1572B6" transform="translate(17,2)"/>
<path d="M0 0 C45.54 0 91.08 0 138 0 C138 10.12218708 138 10.12218708 137.57275391 14.41088867 C137.47904007 15.37549515 137.38532623 16.34010162 137.28877258 17.3339386 C137.18574326 18.35166855 137.08271393 19.3693985 136.9765625 20.41796875 C136.75881107 22.65087312 136.54112133 24.8837835 136.32348633 27.11669922 C136.20921295 28.27264587 136.09493958 29.42859253 135.97720337 30.61956787 C134.26499358 47.96479754 132.57035004 65.29695464 131.63330078 82.70385742 C131.24947559 89.52393133 130.46353008 96.21104141 129.51928711 102.97558594 C128.54110832 110.2674028 127.99354738 117.60834149 127.375 124.9375 C127.23990315 126.50718902 127.10448799 128.07685067 126.96875 129.64648438 C126.64218147 133.4306858 126.31985814 137.21522573 126 141 C111.36846088 145.55462962 96.62077089 149.50791458 81.76831055 153.27539062 C79.49307071 153.87093801 77.2483336 154.51532135 75 155.203125 C65.30069117 157.77950391 55.29511079 153.43560491 46.078125 150.55078125 C40.46032222 148.80342021 34.79207402 147.39814027 29.06640625 146.0546875 C23.3035208 144.63837201 17.65960435 142.77629783 12 141 C11.56841128 136.01989474 11.14132585 131.03943044 10.71826172 126.05859375 C10.57396686 124.36708359 10.42847954 122.67567469 10.28173828 120.984375 C10.0700404 118.54192873 9.86274952 116.09914062 9.65625 113.65625 C9.59062866 112.91008423 9.52500732 112.16391846 9.45739746 111.3951416 C9.36730408 110.31492737 9.36730408 110.31492737 9.27539062 109.21289062 C9.22209595 108.59111938 9.16880127 107.96934814 9.1138916 107.32873535 C8.9456997 103.8897247 9 100.44312109 9 97 C18.24 97 27.48 97 37 97 C37.59901922 104.78724985 38.1576017 112.24249406 38 120 C38.94617188 120.1134375 39.89234375 120.226875 40.8671875 120.34375 C45.70827782 121.03568239 50.39536855 122.27742171 55.125 123.5 C56.87733039 123.94898656 58.62992689 124.39693602 60.3828125 124.84375 C61.14996582 125.04162109 61.91711914 125.23949219 62.70751953 125.44335938 C63.46403809 125.62705078 64.22055664 125.81074219 65 126 C65.81073975 126.21245361 66.62147949 126.42490723 67.45678711 126.64379883 C70.43006451 127.06023463 72.41771003 126.63951185 75.30859375 125.85546875 C76.30310547 125.59056641 77.29761719 125.32566406 78.32226562 125.05273438 C79.35029297 124.76720703 80.37832031 124.48167969 81.4375 124.1875 C82.46166016 123.91357422 83.48582031 123.63964844 84.54101562 123.35742188 C89.4158375 122.04169325 94.21785447 120.62448101 99 119 C99.08564209 118.05157227 99.17128418 117.10314453 99.25952148 116.12597656 C99.57878337 112.59964177 99.90217743 109.07369596 100.22680664 105.54785156 C100.36660282 104.02321465 100.50528554 102.49847521 100.64282227 100.97363281 C100.84096726 98.77901606 101.04314351 96.58480195 101.24609375 94.390625 C101.3065538 93.7113092 101.36701385 93.03199341 101.42930603 92.33209229 C101.73252394 89.0952227 102.20768602 86.16925592 103 83 C81.55 83 60.1 83 38 83 C37.01 69.635 37.01 69.635 36 56 C59.1 56 82.2 56 106 56 C106 52.37 106 48.74 106 45 C106.11397777 42.5191647 106.25476808 40.03922037 106.4375 37.5625 C106.55931641 35.83193359 106.55931641 35.83193359 106.68359375 34.06640625 C107 31 107 31 108 27 C73.02 27 38.04 27 2 27 C1.34 18.09 0.68 9.18 0 0 Z " fill="#FDFEFE" transform="translate(59,47)"/>
<path d="M0 0 C29.7 0 59.4 0 90 0 C89.37065968 12.58680632 88.66179979 25.07646828 87.52539062 37.61303711 C87.37876025 39.26299716 87.23246466 40.91298698 87.08647156 42.56300354 C86.69541312 46.97142897 86.29957103 51.37941189 85.90260124 55.78730845 C85.48550336 60.4264688 85.07246096 65.06599057 84.65881348 69.70545959 C83.96552531 77.47437627 83.26914036 85.24301046 82.57080078 93.01147461 C81.76414141 101.98528822 80.96224801 110.95951814 80.16288805 119.9339847 C79.39071931 128.60215627 78.61544438 137.27004721 77.83866882 145.93780708 C77.50916956 149.61503145 77.18071663 153.29234703 76.85310364 156.96973991 C76.46820817 161.28835175 76.0805807 165.60670989 75.69083595 169.9248867 C75.54839646 171.50786176 75.40688736 173.09092086 75.2663784 174.67406845 C75.0744537 176.83474329 74.8791489 178.9950869 74.6829834 181.15538025 C74.52039158 182.9678369 74.52039158 182.9678369 74.35451508 184.81690884 C74.04490435 187.59681643 73.60233218 190.27067005 73 193 C63.98917675 195.95565465 54.93883607 198.58962717 45.75 200.9375 C35.78005179 203.48591684 25.94173221 206.36545736 16.10009766 209.36572266 C4.0669746 213 4.0669746 213 0 213 C-0.33 202.77 -0.66 192.54 -1 182 C5.88084257 180.15565045 12.76134221 178.31513275 19.66015625 176.5390625 C33.56211444 172.9680099 33.56211444 172.9680099 47.28125 168.76171875 C50.49742304 167.86063579 53.68917981 167.41385252 57 167 C57.029729 166.12770752 57.029729 166.12770752 57.06005859 165.23779297 C57.45546122 154.0725839 57.98902594 142.94071723 59 131.8125 C59.0829834 130.88743652 59.1659668 129.96237305 59.25146484 129.00927734 C59.87418824 122.45783568 59.87418824 122.45783568 60.49511719 120.19824219 C61.23523276 116.97580476 61.37273219 113.72414659 61.578125 110.43359375 C61.68541633 108.84038813 61.79310255 107.24720908 61.90112305 105.65405273 C61.95763031 104.80575897 62.01413757 103.95746521 62.07235718 103.08346558 C63.80152122 77.32780328 66.41061527 51.68389717 69 26 C46.23 26 23.46 26 0 26 C0 17.42 0 8.84 0 0 Z " fill="#34A9DC" transform="translate(128,21)"/>
<path d="M0 0 C9.24 0 18.48 0 28 0 C28.59901922 7.78724985 29.1576017 15.24249406 29 23 C29.94488281 23.11472656 30.88976562 23.22945312 31.86328125 23.34765625 C36.7187604 24.04304201 41.43547588 25.23989216 46.1875 26.4375 C47.07630859 26.65470703 47.96511719 26.87191406 48.88085938 27.09570312 C49.73873047 27.31033203 50.59660156 27.52496094 51.48046875 27.74609375 C52.63905396 28.03504517 52.63905396 28.03504517 53.82104492 28.32983398 C56 29 56 29 60 31 C60 40.24 60 49.48 60 59 C46.84844292 56.36968858 34.07593125 53.12588321 21.26611328 49.19433594 C15.20967602 47.33750908 9.11914073 45.63808696 3 44 C2.56841128 39.01989474 2.14132585 34.03943044 1.71826172 29.05859375 C1.57396686 27.36708359 1.42847954 25.67567469 1.28173828 23.984375 C1.0700404 21.54192873 0.86274952 19.09914062 0.65625 16.65625 C0.59062866 15.91008423 0.52500732 15.16391846 0.45739746 14.3951416 C0.39733521 13.67499878 0.33727295 12.95485596 0.27539062 12.21289062 C0.22209595 11.59111938 0.16880127 10.96934814 0.1138916 10.32873535 C-0.0543003 6.8897247 0 3.44312109 0 0 Z " fill="#E8E9EA" transform="translate(68,144)"/>
<path d="M0 0 C22.77 0 45.54 0 69 0 C69 8.58 69 17.16 69 26 C46.89 26.33 24.78 26.66 2 27 C1.34 18.09 0.68 9.18 0 0 Z " fill="#EAEAEA" transform="translate(59,47)"/>
<path d="M0 0 C21.12 0 42.24 0 64 0 C62 29 62 29 61 36 C58.48706447 37.54108201 56.78215147 38.22811528 54 39 C53.11505859 39.26361328 52.23011719 39.52722656 51.31835938 39.79882812 C48.30672084 40.66474954 45.28341421 41.46398324 42.25 42.25 C41.20972656 42.53101563 40.16945312 42.81203125 39.09765625 43.1015625 C37.60298828 43.49214844 37.60298828 43.49214844 36.078125 43.890625 C34.72315918 44.24688965 34.72315918 44.24688965 33.34082031 44.61035156 C31 45 31 45 28 44 C28.66 44 29.32 44 30 44 C30 29.81 30 15.62 30 1 C20.1 1 10.2 1 0 1 C0 0.67 0 0.34 0 0 Z " fill="#38AADC" transform="translate(98,130)"/>
<path d="M0 0 C34.98 0 69.96 0 106 0 C105.34 9.57 104.68 19.14 104 29 C91.79 29 79.58 29 67 29 C67 19.76 67 10.52 67 1 C44.89 1 22.78 1 0 1 C0 0.67 0 0.34 0 0 Z " fill="#3CABDC" transform="translate(61,74)"/>
<path d="M0 0 C10.89 0 21.78 0 33 0 C33 8.58 33 17.16 33 26 C30.92976563 25.98839844 28.85953125 25.97679687 26.7265625 25.96484375 C24.72428507 25.9578914 22.72200735 25.9509741 20.71972656 25.94506836 C19.32681523 25.9400357 17.9339092 25.93320902 16.54101562 25.92456055 C14.54038754 25.91244848 12.53972112 25.90729588 10.5390625 25.90234375 C9.33459473 25.89710693 8.13012695 25.89187012 6.88916016 25.88647461 C4.0586323 25.79912109 4.0586323 25.79912109 2 27 C1.34 18.09 0.68 9.18 0 0 Z " fill="#E9EAEA" transform="translate(95,103)"/>
<path d="M0 0 C73.26 0 146.52 0 222 0 C222 0.33 222 0.66 222 1 C148.74 1 75.48 1 0 1 C0 0.67 0 0.34 0 0 Z " fill="#0055A9" transform="translate(17,0)"/>
<path d="M0 0 C0.33 0 0.66 0 1 0 C1 3.63 1 7.26 1 11 C0.67 11 0.34 11 0 11 C0 7.37 0 3.74 0 0 Z " fill="#00629A" transform="translate(221,213)"/>
<path d="M0 0 C0.33 0 0.66 0 1 0 C1 3.63 1 7.26 1 11 C0.67 11 0.34 11 0 11 C0 7.37 0 3.74 0 0 Z " fill="#006FC5" transform="translate(34,213)"/>
<path d="M0 0 C0.33 0 0.66 0 1 0 C1 3.63 1 7.26 1 11 C0.67 11 0.34 11 0 11 C0 7.37 0 3.74 0 0 Z " fill="#006293" transform="translate(33,202)"/>
<path d="M0 0 C0.33 0 0.66 0 1 0 C1 3.63 1 7.26 1 11 C0.67 11 0.34 11 0 11 C0 7.37 0 3.74 0 0 Z " fill="#004DAB" transform="translate(222,201)"/>
<path d="M0 0 C0.33 0 0.66 0 1 0 C1 3.63 1 7.26 1 11 C0.67 11 0.34 11 0 11 C0 7.37 0 3.74 0 0 Z " fill="#004DC3" transform="translate(223,190)"/>
<path d="M0 0 C0.33 0 0.66 0 1 0 C1 3.63 1 7.26 1 11 C0.67 11 0.34 11 0 11 C0 7.37 0 3.74 0 0 Z " fill="#0061A8" transform="translate(32,190)"/>
<path d="M0 0 C0.33 0 0.66 0 1 0 C1 3.63 1 7.26 1 11 C0.67 11 0.34 11 0 11 C0 7.37 0 3.74 0 0 Z " fill="#006FC5" transform="translate(224,179)"/>
<path d="M0 0 C0.33 0 0.66 0 1 0 C1 3.63 1 7.26 1 11 C0.67 11 0.34 11 0 11 C0 7.37 0 3.74 0 0 Z " fill="#004DC3" transform="translate(31,179)"/>
<path d="M0 0 C0.33 0 0.66 0 1 0 C1 3.63 1 7.26 1 11 C0.67 11 0.34 11 0 11 C0 7.37 0 3.74 0 0 Z " fill="#0064AD" transform="translate(225,168)"/>
<path d="M0 0 C0.33 0 0.66 0 1 0 C1 3.63 1 7.26 1 11 C0.67 11 0.34 11 0 11 C0 7.37 0 3.74 0 0 Z " fill="#006FC5" transform="translate(30,168)"/>
<path d="M0 0 C0.33 0 0.66 0 1 0 C1 3.63 1 7.26 1 11 C0.67 11 0.34 11 0 11 C0 7.37 0 3.74 0 0 Z " fill="#00629A" transform="translate(226,157)"/>
<path d="M0 0 C0.33 0 0.66 0 1 0 C1 3.63 1 7.26 1 11 C0.67 11 0.34 11 0 11 C0 7.37 0 3.74 0 0 Z " fill="#0064AD" transform="translate(29,157)"/>
<path d="M0 0 C0.33 0 0.66 0 1 0 C1 3.63 1 7.26 1 11 C0.67 11 0.34 11 0 11 C0 7.37 0 3.74 0 0 Z " fill="#005E95" transform="translate(28,146)"/>
<path d="M0 0 C0.33 0 0.66 0 1 0 C1 3.63 1 7.26 1 11 C0.67 11 0.34 11 0 11 C0 7.37 0 3.74 0 0 Z " fill="#004DAB" transform="translate(227,145)"/>
<path d="M0 0 C0.33 0 0.66 0 1 0 C1 3.63 1 7.26 1 11 C0.67 11 0.34 11 0 11 C0 7.37 0 3.74 0 0 Z " fill="#0049BB" transform="translate(228,134)"/>
<path d="M0 0 C0.33 0 0.66 0 1 0 C1 3.63 1 7.26 1 11 C0.67 11 0.34 11 0 11 C0 7.37 0 3.74 0 0 Z " fill="#004DC3" transform="translate(27,134)"/>
<path d="M0 0 C0.33 0 0.66 0 1 0 C1 3.63 1 7.26 1 11 C0.67 11 0.34 11 0 11 C0 7.37 0 3.74 0 0 Z " fill="#006FC5" transform="translate(229,123)"/>
<path d="M0 0 C0.33 0 0.66 0 1 0 C1 3.63 1 7.26 1 11 C0.67 11 0.34 11 0 11 C0 7.37 0 3.74 0 0 Z " fill="#0049BB" transform="translate(26,123)"/>
<path d="M0 0 C0.33 0 0.66 0 1 0 C1 3.63 1 7.26 1 11 C0.67 11 0.34 11 0 11 C0 7.37 0 3.74 0 0 Z " fill="#0064AD" transform="translate(230,112)"/>
<path d="M0 0 C0.33 0 0.66 0 1 0 C1 3.63 1 7.26 1 11 C0.67 11 0.34 11 0 11 C0 7.37 0 3.74 0 0 Z " fill="#006FC5" transform="translate(25,112)"/>
<path d="M0 0 C0.33 0 0.66 0 1 0 C1 3.63 1 7.26 1 11 C0.67 11 0.34 11 0 11 C0 7.37 0 3.74 0 0 Z " fill="#005E95" transform="translate(231,101)"/>
<path d="M0 0 C0.33 0 0.66 0 1 0 C1 3.63 1 7.26 1 11 C0.67 11 0.34 11 0 11 C0 7.37 0 3.74 0 0 Z " fill="#006293" transform="translate(24,101)"/>
<path d="M0 0 C0.33 0 0.66 0 1 0 C1 3.63 1 7.26 1 11 C0.67 11 0.34 11 0 11 C0 7.37 0 3.74 0 0 Z " fill="#004DC3" transform="translate(232,89)"/>
<path d="M0 0 C0.33 0 0.66 0 1 0 C1 3.63 1 7.26 1 11 C0.67 11 0.34 11 0 11 C0 7.37 0 3.74 0 0 Z " fill="#005E95" transform="translate(23,89)"/>
<path d="M0 0 C0.33 0 0.66 0 1 0 C1 3.63 1 7.26 1 11 C0.67 11 0.34 11 0 11 C0 7.37 0 3.74 0 0 Z " fill="#0049BB" transform="translate(233,78)"/>
<path d="M0 0 C0.33 0 0.66 0 1 0 C1 3.63 1 7.26 1 11 C0.67 11 0.34 11 0 11 C0 7.37 0 3.74 0 0 Z " fill="#004DC3" transform="translate(22,78)"/>
<path d="M0 0 C0.33 0 0.66 0 1 0 C1 3.63 1 7.26 1 11 C0.67 11 0.34 11 0 11 C0 7.37 0 3.74 0 0 Z " fill="#006FC5" transform="translate(234,67)"/>
<path d="M0 0 C0.33 0 0.66 0 1 0 C1 3.63 1 7.26 1 11 C0.67 11 0.34 11 0 11 C0 7.37 0 3.74 0 0 Z " fill="#0060BB" transform="translate(21,67)"/>
<path d="M0 0 C0.33 0 0.66 0 1 0 C1 3.63 1 7.26 1 11 C0.67 11 0.34 11 0 11 C0 7.37 0 3.74 0 0 Z " fill="#006496" transform="translate(235,56)"/>
<path d="M0 0 C0.33 0 0.66 0 1 0 C1 3.63 1 7.26 1 11 C0.67 11 0.34 11 0 11 C0 7.37 0 3.74 0 0 Z " fill="#006FB9" transform="translate(20,56)"/>
<path d="M0 0 C0.33 0 0.66 0 1 0 C1 3.63 1 7.26 1 11 C0.67 11 0.34 11 0 11 C0 7.37 0 3.74 0 0 Z " fill="#005E95" transform="translate(236,45)"/>
<path d="M0 0 C0.33 0 0.66 0 1 0 C1 3.63 1 7.26 1 11 C0.67 11 0.34 11 0 11 C0 7.37 0 3.74 0 0 Z " fill="#00629A" transform="translate(19,45)"/>
<path d="M0 0 C0.33 0 0.66 0 1 0 C1 3.63 1 7.26 1 11 C0.67 11 0.34 11 0 11 C0 7.37 0 3.74 0 0 Z " fill="#004DC3" transform="translate(237,33)"/>
<path d="M0 0 C0.33 0 0.66 0 1 0 C1 3.63 1 7.26 1 11 C0.67 11 0.34 11 0 11 C0 7.37 0 3.74 0 0 Z " fill="#004DAB" transform="translate(18,33)"/>
<path d="M0 0 C0.33 0 0.66 0 1 0 C1 3.63 1 7.26 1 11 C0.67 11 0.34 11 0 11 C0 7.37 0 3.74 0 0 Z " fill="#0049BB" transform="translate(238,22)"/>
<path d="M0 0 C0.33 0 0.66 0 1 0 C1 3.63 1 7.26 1 11 C0.67 11 0.34 11 0 11 C0 7.37 0 3.74 0 0 Z " fill="#0049BB" transform="translate(17,22)"/>
<path d="M0 0 C0.33 0 0.66 0 1 0 C1 3.63 1 7.26 1 11 C0.67 11 0.34 11 0 11 C0 7.37 0 3.74 0 0 Z " fill="#006FC5" transform="translate(239,11)"/>
<path d="M0 0 C0.33 0 0.66 0 1 0 C1 3.63 1 7.26 1 11 C0.67 11 0.34 11 0 11 C0 7.37 0 3.74 0 0 Z " fill="#006FC5" transform="translate(16,11)"/>
<path d="M0 0 C0.33 0 0.66 0 1 0 C1 2.97 1 5.94 1 9 C0.67 9 0.34 9 0 9 C0 6.03 0 3.06 0 0 Z " fill="#00679E" transform="translate(240,2)"/>
<path d="M0 0 C0.33 0 0.66 0 1 0 C1 2.97 1 5.94 1 9 C0.67 9 0.34 9 0 9 C0 6.03 0 3.06 0 0 Z " fill="#00679E" transform="translate(15,2)"/>
<path d="M0 0 C0.33 0 0.66 0 1 0 C1 1.65 1 3.3 1 5 C0.67 5 0.34 5 0 5 C0 3.35 0 1.7 0 0 Z " fill="#0090BA" transform="translate(220,224)"/>
<path d="M0 0 C0.33 0 0.66 0 1 0 C1 1.65 1 3.3 1 5 C0.67 5 0.34 5 0 5 C0 3.35 0 1.7 0 0 Z " fill="#00A9D4" transform="translate(35,224)"/>
<path d="M0 0 C4 1 4 1 4 1 Z " fill="#002A55" transform="translate(126,255)"/>
<path d="M0 0 C4 1 4 1 4 1 Z " fill="#0079E5" transform="translate(133,253)"/>
<path d="M0 0 C4 1 4 1 4 1 Z " fill="#005F8F" transform="translate(115,252)"/>
<path d="M0 0 C4 1 4 1 4 1 Z " fill="#005F8F" transform="translate(144,250)"/>
<path d="M0 0 C4 1 4 1 4 1 Z " fill="#0074D9" transform="translate(108,250)"/>
<path d="M0 0 C4 1 4 1 4 1 Z " fill="#008A9A" transform="translate(104,249)"/>
<path d="M0 0 C4 1 4 1 4 1 Z " fill="#0074D9" transform="translate(151,248)"/>
<path d="M0 0 C4 1 4 1 4 1 Z " fill="#00749A" transform="translate(155,247)"/>
<path d="M0 0 C4 1 4 1 4 1 Z " fill="#005F8F" transform="translate(97,247)"/>
<path d="M0 0 C4 1 4 1 4 1 Z " fill="#005F8F" transform="translate(162,245)"/>
<path d="M0 0 C4 1 4 1 4 1 Z " fill="#0074D9" transform="translate(90,245)"/>
<path d="M0 0 C4 1 4 1 4 1 Z " fill="#00749A" transform="translate(86,244)"/>
<path d="M0 0 C4 1 4 1 4 1 Z " fill="#0074D9" transform="translate(169,243)"/>
<path d="M0 0 C4 1 4 1 4 1 Z " fill="#005F8F" transform="translate(79,242)"/>
<path d="M0 0 C4 1 4 1 4 1 Z " fill="#005F8F" transform="translate(180,240)"/>
<path d="M0 0 C4 1 4 1 4 1 Z " fill="#0074D9" transform="translate(72,240)"/>
<path d="M0 0 C4 1 4 1 4 1 Z " fill="#00749A" transform="translate(68,239)"/>
<path d="M0 0 C4 1 4 1 4 1 Z " fill="#005F8F" transform="translate(61,237)"/>
<path d="M0 0 C4 1 4 1 4 1 Z " fill="#005985" transform="translate(198,235)"/>
<path d="M0 0 C4 1 4 1 4 1 Z " fill="#0074D9" transform="translate(54,235)"/>
<path d="M0 0 C4 1 4 1 4 1 Z " fill="#00749A" transform="translate(50,234)"/>
<path d="M0 0 C4 1 4 1 4 1 Z " fill="#005F8F" transform="translate(43,232)"/>
<path d="M0 0 C3 1 3 1 3 1 Z " fill="#0063A2" transform="translate(130,254)"/>
<path d="M0 0 C3 1 3 1 3 1 Z " fill="#008DA2" transform="translate(137,252)"/>
<path d="M0 0 C3 1 3 1 3 1 Z " fill="#0054BF" transform="translate(141,251)"/>
<path d="M0 0 C3 1 3 1 3 1 Z " fill="#0054BF" transform="translate(112,251)"/>
<path d="M0 0 C3 1 3 1 3 1 Z " fill="#0054BF" transform="translate(148,249)"/>
<path d="M0 0 C3 1 3 1 3 1 Z " fill="#0054BF" transform="translate(101,248)"/>
<path d="M0 0 C3 1 3 1 3 1 Z " fill="#0054BF" transform="translate(159,246)"/>
<path d="M0 0 C3 1 3 1 3 1 Z " fill="#0054BF" transform="translate(94,246)"/>
<path d="M0 0 C3 1 3 1 3 1 Z " fill="#0063CD" transform="translate(166,244)"/>
<path d="M0 0 C3 1 3 1 3 1 Z " fill="#0054BF" transform="translate(83,243)"/>
<path d="M0 0 C3 1 3 1 3 1 Z " fill="#0054BF" transform="translate(76,241)"/>
<path d="M0 0 C3 1 3 1 3 1 Z " fill="#0063CD" transform="translate(184,239)"/>
<path d="M0 0 C3 1 3 1 3 1 Z " fill="#0054BF" transform="translate(65,238)"/>
<path d="M0 0 C3 1 3 1 3 1 Z " fill="#0063CD" transform="translate(58,236)"/>
<path d="M0 0 C3 1 3 1 3 1 Z " fill="#0063A2" transform="translate(202,234)"/>
<path d="M0 0 C3 1 3 1 3 1 Z " fill="#0054BF" transform="translate(47,233)"/>
<path d="M0 0 C3 1 3 1 3 1 Z " fill="#0063CD" transform="translate(40,231)"/>
<path d="M0 0 C3 1 3 1 3 1 Z " fill="#00CCDD" transform="translate(216,230)"/>
<path d="M0 0 C3 1 3 1 3 1 Z " fill="#00A9BF" transform="translate(37,230)"/>
</svg>
