<?xml version="1.0" standalone="no"?>
<!DOCTYPE svg PUBLIC "-//W3C//DTD SVG 20010904//EN"
 "http://www.w3.org/TR/2001/REC-SVG-20010904/DTD/svg10.dtd">
<svg version="1.0" xmlns="http://www.w3.org/2000/svg"
 width="450.000000pt" height="450.000000pt" viewBox="0 0 450.000000 450.000000"
 preserveAspectRatio="xMidYMid meet">

<g transform="translate(0.000000,450.000000) scale(0.100000,-0.100000)"
fill="#000000" stroke="none">
<path d="M1870 4317 c-3 -3 -77 -7 -165 -10 -256 -7 -616 -53 -780 -98 -343
-95 -507 -218 -611 -458 -60 -140 -106 -382 -119 -636 -3 -60 -10 -165 -14
-231 -5 -67 -9 -357 -10 -645 -3 -891 25 -1233 118 -1475 156 -404 538 -554
1517 -595 290 -12 893 -6 1129 11 833 62 1167 228 1298 645 50 161 69 301 87
640 12 241 12 1326 -1 1480 -4 61 -13 169 -19 240 -15 182 -21 238 -27 255 -3
8 -7 31 -10 50 -4 34 -38 160 -50 190 -4 8 -7 22 -8 31 -3 26 -82 167 -122
218 -95 120 -284 223 -514 281 -157 39 -415 76 -659 95 -95 7 -1034 18 -1040
12z m1160 -56 c388 -42 617 -94 721 -167 22 -15 39 -28 39 -29 0 -2 -107 19
-180 35 -121 27 -339 62 -484 76 -122 13 -302 18 -746 21 -589 5 -812 -2
-1097 -33 -117 -12 -191 -25 -468 -79 -87 -17 -98 -18 -93 -4 4 13 116 62 203
89 130 42 455 86 760 104 141 8 1247 -2 1345 -13z m-485 -559 c190 -41 324
-123 383 -236 l27 -51 3 -351 c3 -366 -2 -421 -43 -520 -19 -45 -28 -40 -14 7
17 58 37 149 33 149 -9 0 -34 -61 -29 -70 3 -6 2 -10 -3 -10 -5 0 -17 -18 -27
-41 -25 -54 -96 -111 -175 -140 l-65 -24 -471 0 c-388 0 -474 -2 -488 -14 -9
-8 -37 -14 -61 -14 -25 0 -45 -3 -45 -6 0 -4 -19 -12 -43 -18 -45 -13 -67 -41
-67 -87 0 -13 -7 -29 -15 -36 -8 -7 -15 -20 -15 -29 0 -9 -6 -27 -13 -41 -17
-33 -29 -165 -20 -227 l6 -48 14 70 c8 38 21 80 28 94 19 35 18 8 -1 -54 -11
-35 -18 -108 -21 -242 -3 -106 -10 -193 -14 -193 -5 0 -9 11 -9 25 0 19 -5 25
-22 25 -73 1 -227 22 -270 37 -65 23 -151 100 -185 167 -14 27 -33 61 -43 76
-10 14 -21 42 -25 63 -3 21 -14 55 -25 75 -10 21 -20 44 -23 52 -3 8 -3 -10 0
-40 4 -47 36 -187 58 -255 14 -43 -29 43 -48 95 -49 140 -63 447 -27 619 38
187 134 333 260 394 106 52 167 57 685 57 444 0 474 1 495 18 13 10 24 30 26
43 1 13 3 26 3 28 1 3 7 -4 15 -14 13 -18 14 -18 25 4 17 31 5 76 -27 97 -23
16 -60 19 -267 25 -132 4 -259 12 -282 17 -24 5 -59 24 -78 41 -20 17 -39 31
-44 31 -4 0 -13 10 -20 23 -10 20 -11 18 -6 -13 17 -100 18 -105 7 -95 -22 21
-44 138 -40 210 13 196 146 297 448 341 135 19 435 12 555 -14z m1643 -112
c23 -71 46 -220 63 -405 6 -66 13 -412 16 -770 7 -856 -10 -1221 -68 -1438
-25 -93 -39 -107 -27 -29 46 319 63 789 55 1502 -7 572 -14 726 -47 970 -32
243 -34 256 -23 245 6 -5 20 -39 31 -75z m-3831 48 c-20 -83 -48 -273 -57
-384 -41 -517 -38 -1704 6 -2109 8 -82 17 -172 20 -200 l4 -50 -21 60 c-32 96
-57 309 -70 593 -14 308 -6 1470 10 1652 17 179 49 360 73 413 22 48 44 64 35
25z m3029 -678 c166 -58 265 -176 321 -386 24 -92 27 -115 27 -309 1 -187 -2
-220 -22 -300 -38 -151 -103 -260 -197 -330 -120 -90 -158 -95 -728 -95 -490
0 -505 -1 -531 -42 -8 -14 -6 -22 12 -40 22 -23 27 -23 337 -28 395 -6 360 15
360 -213 0 -144 -2 -167 -21 -208 -44 -95 -138 -158 -299 -199 -218 -56 -603
-48 -800 16 -131 43 -234 125 -282 223 l-28 56 -3 334 c-4 349 2 416 39 516
24 64 92 143 154 180 96 56 162 63 600 69 419 5 452 8 540 53 55 29 121 98
150 158 40 81 55 174 55 347 0 175 7 203 54 218 46 14 196 2 262 -20z"/>
<path d="M1825 3581 c-116 -32 -183 -107 -160 -180 8 -28 21 -19 28 19 11 52
23 33 19 -28 -4 -54 -2 -62 27 -94 17 -20 43 -39 56 -42 43 -11 101 11 134 50
37 46 46 92 27 138 -8 20 -11 36 -5 36 5 0 9 -4 9 -8 0 -5 7 -17 15 -28 14
-18 15 -17 9 11 -22 111 -71 150 -159 126z"/>
<path d="M2633 1239 c-35 -10 -80 -58 -89 -95 -23 -89 55 -165 145 -142 117
30 132 188 21 232 -22 9 -41 16 -43 15 -1 0 -16 -5 -34 -10z"/>
</g>
</svg>
