<?xml version="1.0" encoding="UTF-8"?>
<svg version="1.1" xmlns="http://www.w3.org/2000/svg" width="1300" height="1356">
<path d="M0 0 C9.44346381 3.19383738 18.94806189 6.10022456 28.52128601 8.87664986 C30.10763852 9.33956962 31.69389867 9.80280598 33.28007507 10.26632881 C36.65824557 11.25283455 40.03701706 12.23724238 43.41630554 13.21991158 C48.83641838 14.79606292 54.25511856 16.37703376 59.67362976 17.95868111 C66.30296963 19.89345469 72.93261793 21.82716423 79.56268311 23.75945091 C91.19694329 27.15030073 102.82870649 30.54961532 114.45878601 33.95477486 C115.29695862 34.20017887 116.13513123 34.44558289 116.998703 34.69842339 C121.21525307 35.9330157 125.4317567 37.16776653 129.64823914 38.4025898 C137.31264677 40.64707573 144.97747063 42.89013959 152.64225769 45.13332939 C156.91445033 46.38365057 161.18661687 47.63406091 165.45878601 48.88446236 C167.16711922 49.38446279 168.87545255 49.88446279 170.58378601 50.38446236 C174.00045268 51.38446236 177.41711934 52.38446236 180.83378601 53.38446236 C182.10222682 53.7557133 182.10222682 53.7557133 183.39629269 54.13446426 C185.1046038 54.63445779 186.81291488 55.13445143 188.52122593 55.63444519 C192.79239894 56.88454515 197.06357253 58.13464312 201.33474731 59.38473701 C209.01819181 61.63354125 216.70163227 63.88235927 224.38505077 66.13125229 C228.65051171 67.37972804 232.91597608 68.62819205 237.18144226 69.87664986 C238.02621691 70.1239069 238.87099155 70.37116394 239.74136543 70.62591362 C251.78064942 74.14966555 263.82012799 77.67275204 275.85972214 81.19544411 C310.41671313 91.30665494 344.97162643 101.42485306 379.52075958 111.56288338 C404.76812409 118.97135779 430.01845889 126.36962922 455.27128601 133.75946236 C456.12290314 134.00867439 456.97452026 134.25788643 457.85194397 134.51465034 C465.61929877 136.78761495 473.38669426 139.06044049 481.15412903 141.33313179 C493.18162595 144.85228813 505.20894849 148.37203987 517.23612976 151.89227486 C518.08093966 152.13954197 518.92574955 152.38680908 519.79615974 152.64156914 C524.0610542 153.88986302 528.32594558 155.1381674 532.59083557 156.38647652 C540.27582139 158.63582282 547.96083451 160.88507587 555.64584541 163.13433647 C559.91682672 164.38437466 564.18780628 165.63441881 568.45878601 166.88446236 C570.16711934 167.38446239 571.87545267 167.88446239 573.58378601 168.38446236 C577.00045268 169.38446236 580.41711934 170.38446236 583.83378601 171.38446236 C585.10222682 171.7557133 585.10222682 171.7557133 586.39629269 172.13446426 C588.1046038 172.63445779 589.81291488 173.13445143 591.52122593 173.63444519 C595.79239894 174.88454515 600.06357253 176.13464312 604.33474731 177.38473701 C612.01819181 179.63354125 619.70163227 181.88235927 627.38505077 184.13125229 C631.65051171 185.37972804 635.91597608 186.62819205 640.18144226 187.87664986 C641.02621691 188.1239069 641.87099155 188.37116394 642.74136543 188.62591362 C654.78064942 192.14966555 666.82012799 195.67275204 678.85972214 199.19544411 C714.17504969 209.5285406 749.4882419 219.86881902 784.79521179 230.23044014 C804.69537147 236.07054145 824.59775671 241.90296496 844.50334167 247.72455025 C853.37668491 250.31970597 862.24964293 252.9161572 871.12138367 255.51678658 C874.48513517 256.50268792 877.84890992 257.48850996 881.21269226 258.47430611 C882.02466568 258.71229927 882.8366391 258.95029243 883.67321777 259.19549751 C892.74459769 261.85384415 901.81907828 264.50033449 910.9029541 267.1157093 C915.05112542 268.31063741 919.19704713 269.51323841 923.34260559 270.71719551 C925.95447997 271.47208981 928.56958738 272.21482058 931.18510437 272.95697212 C942.98729372 276.35773206 953.71990348 280.78826868 963.52128601 288.32196236 C964.18797302 288.83146431 964.85466003 289.34096626 965.54154968 289.86590767 C978.57616787 300.07505404 989.10211009 311.75732489 997.70878601 325.88446236 C998.08084167 326.48693794 998.45289734 327.08941353 998.83622742 327.71014595 C1015.90853697 355.85513388 1016.87208298 386.87639569 1016.81126404 418.81349373 C1016.80915739 421.56882718 1016.80856656 424.32416053 1016.80789304 427.07949466 C1016.80531762 433.84089592 1016.79731887 440.60228071 1016.78761464 447.36367507 C1016.77623683 455.46834745 1016.77074363 463.57302123 1016.76532801 471.6776994 C1016.75195249 491.25757975 1016.72829858 510.83744367 1016.70352197 530.41731229 C1016.69187161 539.68452215 1016.68153406 548.95173334 1016.67136067 558.21894492 C1016.63649664 589.96018465 1016.59954811 621.70142086 1016.55520248 653.44264889 C1016.55242661 655.43314997 1016.54965081 657.42365105 1016.54687507 659.41415213 C1016.54409079 661.40935318 1016.54130628 663.40455424 1016.53852153 665.3997553 C1016.53293539 669.40222601 1016.52735345 673.40469672 1016.52177429 677.40716743 C1016.51969611 678.89572485 1016.51969611 678.89572485 1016.51757595 680.41435412 C1016.47272325 712.60116821 1016.44013639 744.78797833 1016.4149294 776.97481341 C1016.38821466 811.03000339 1016.35070104 845.08516447 1016.30075479 879.14032859 C1016.2953099 882.87992166 1016.28990832 886.61951479 1016.28453827 890.35910797 C1016.28321089 891.2798553 1016.28188351 892.20060262 1016.2805159 893.14925138 C1016.25942845 907.94992626 1016.24810545 922.75059309 1016.24028597 937.55128024 C1016.23217298 952.43072633 1016.21298002 967.31012662 1016.18263355 982.18954424 C1016.16493683 991.02210148 1016.15543673 999.85457688 1016.15787993 1008.687152 C1016.15868749 1014.59591189 1016.14857018 1020.50458966 1016.12978607 1026.41331953 C1016.11940533 1029.77401728 1016.11521748 1033.13439807 1016.12106916 1036.49512813 C1016.14800442 1054.04575315 1015.41422452 1070.50579299 1009.64628601 1087.25946236 C1009.34955994 1088.13030464 1009.05283386 1089.00114693 1008.74711609 1089.89837837 C1001.79333618 1109.45842596 990.55591865 1126.52097842 976.1726532 1141.36932564 C974.66225021 1142.93262799 973.17435262 1144.51563369 971.68534851 1146.09930611 C944.6330605 1174.44763851 907.71642911 1190.69021525 868.62675476 1192.16961861 C823.34342234 1193.16241071 781.60641528 1178.29627371 744.40214539 1153.01971626 C742.92615454 1152.03018953 741.42116362 1151.08419425 739.91191101 1150.14618111 C729.87458765 1143.89811573 723.28695699 1134.84449805 720.39628601 1123.32196236 C718.4553689 1112.6842436 720.08469723 1102.8279098 726.20097351 1093.76336861 C732.64439342 1085.73413291 741.45487566 1080.32142903 751.70878601 1078.88446236 C763.36856362 1077.9639536 771.62713701 1080.64709802 781.70878601 1086.13446236 C809.30367846 1101.13931869 843.77123769 1109.88381929 874.70878601 1100.88446236 C896.73801252 1093.85878614 918.0036661 1080.10400577 929.06297231 1059.22371376 C936.1243145 1044.89669926 936.4763407 1031.85802975 936.50547791 1016.10782051 C936.52763075 1013.66684059 936.55179965 1011.22587825 936.57784772 1008.78493679 C936.63946599 1002.40875853 936.67102744 996.03281387 936.69354737 989.65639085 C936.71294838 984.85417569 936.74693533 980.05212377 936.78137746 975.24999698 C936.88499989 960.60238183 936.9248159 945.95484838 936.95337176 931.30692387 C936.96639329 925.07047569 936.98358808 918.83403978 937.00048636 912.59760113 C937.04518991 896.0050271 937.08117866 879.41243813 937.1157899 862.81984051 C937.1322568 854.95014107 937.1497607 847.08044402 937.16734195 839.21074699 C937.22767829 812.17993015 937.28591415 785.14910976 937.33750534 758.11827469 C937.34072424 756.43470595 937.34394361 754.75113721 937.34716345 753.06756847 C937.3487592 752.23290088 937.35035495 751.39823328 937.35199905 750.53827273 C937.36008129 746.31122134 937.36817043 742.08416997 937.37626648 737.85711861 C937.37787071 737.01835539 937.37947495 736.17959218 937.38112779 735.3154119 C937.43343532 708.01023859 937.4979425 680.70511247 937.5694921 653.39998327 C937.64543341 624.40100165 937.71033289 595.40201575 937.76268888 566.40298164 C937.76847576 563.22066991 937.77430817 560.03835826 937.78017426 556.85604668 C937.78161317 556.07270516 937.78305209 555.28936365 937.78453462 554.48228451 C937.80787241 541.91822407 937.84120188 529.3542095 937.87820066 516.79018272 C937.91507874 504.18195516 937.94069492 491.57374327 937.95497313 478.96546955 C937.96299124 472.1458834 937.97617175 465.32640575 938.00248528 458.50686264 C938.02647719 452.25864117 938.03633006 446.01055857 938.03520218 439.76229261 C938.0372341 437.50993684 938.04432377 435.25757833 938.05715951 433.00525822 C938.18789005 409.01482577 936.0310594 385.78859422 918.54862976 367.64227486 C916.34964439 365.58678588 914.09776135 363.71466041 911.70878601 361.88446236 C911.03073914 361.36368111 910.35269226 360.84289986 909.65409851 360.30633736 C904.35485184 356.72321683 898.6749115 354.72298955 892.64628601 352.75555611 C891.73369019 352.45483192 890.82109436 352.15410774 889.88084412 351.84427071 C877.9674593 347.94777837 865.97705842 344.29609988 853.99092102 340.63123131 C850.47631126 339.55587203 846.96267972 338.47732657 843.44902039 337.39886665 C842.72322281 337.176104 841.99742523 336.95334135 841.24963379 336.72382832 C839.75859788 336.26619361 838.26756499 335.80854904 836.77653503 335.35089493 C834.48579445 334.64789682 832.1949566 333.94521646 829.90409851 333.24260139 C812.846704 328.01029892 795.7990204 322.74658764 778.75152588 317.48213768 C774.48312411 316.1640934 770.21460332 314.8464347 765.9460907 313.52874947 C754.66203151 310.04529877 743.37815443 306.56125837 732.09428406 303.07719612 C719.13256533 299.07508236 706.17075848 295.07325423 693.20878601 291.07196236 C692.36275944 290.8107925 691.51673286 290.54962265 690.64506912 290.28053856 C667.23250884 283.05312488 643.81662848 275.83661677 620.39628601 268.63446236 C598.82954658 262.00232247 577.26699798 255.35677082 555.70878601 248.69696236 C555.0156707 248.48284832 554.32255539 248.26873428 553.60843658 248.04813194 C547.18038736 246.0624013 540.75237435 244.07655345 534.3243866 242.09062386 C516.22411242 236.4986106 498.12291081 230.90960191 480.02128601 225.32196236 C479.1641312 225.05736843 478.30697639 224.79277451 477.4238472 224.52016258 C453.7516751 217.21293841 430.07623659 209.91643856 406.39628601 202.63446236 C384.82954518 196.00232703 363.26699797 189.35677082 341.70878601 182.69696236 C341.0156707 182.48284832 340.32255539 182.26873428 339.60843658 182.04813194 C333.18038736 180.0624013 326.75237435 178.07655345 320.3243866 176.09062386 C302.22411242 170.4986106 284.12291081 164.90960191 266.02128601 159.32196236 C265.1641312 159.05736843 264.30697639 158.79277451 263.4238472 158.52016258 C239.7516751 151.21293841 216.07623659 143.91643856 192.39628601 136.63446236 C168.05712978 129.1497627 143.72384481 121.64623147 119.39506531 114.12787056 C116.56214663 113.25243857 113.72921899 112.37703558 110.89628601 111.50164986 C110.1850036 111.281854 109.4737212 111.06205814 108.74088478 110.83560181 C97.04404558 107.22134018 85.34510829 103.61391075 73.64546204 100.0087471 C68.06930385 98.29034631 62.49336598 96.57123069 56.91741943 94.85214329 C51.51355711 93.18621296 46.10933483 91.52145686 40.70484924 89.85754967 C37.33396608 88.81941773 33.96343857 87.78013476 30.59300232 86.7405529 C29.03183315 86.25928183 27.47051858 85.77848215 25.90904236 85.29820824 C17.97339897 82.85713994 10.05658435 80.37659429 2.18934631 77.72094917 C-1.416322 76.50505694 -5.03738719 75.34155174 -8.66621399 74.19696236 C-9.32492493 73.98491158 -9.98363586 73.77286079 -10.66230774 73.55438423 C-28.67756224 67.8776092 -47.64579601 70.21250659 -64.60371399 78.00946236 C-79.72866562 86.10596266 -88.90991605 98.80103256 -94.29121399 114.88446236 C-96.90223976 123.76112937 -96.55648911 132.6630875 -96.51585388 141.82461739 C-96.51512757 143.66420609 -96.51530373 145.50379533 -96.51630199 147.34338391 C-96.51652127 151.33518848 -96.51037241 155.32691542 -96.49933434 159.31870461 C-96.48138594 165.81433106 -96.47719523 172.30992623 -96.47460938 178.80557442 C-96.46960061 188.23612722 -96.45820961 197.66665452 -96.44334793 207.09719658 C-96.4206291 222.00473866 -96.4208789 236.91224024 -96.42521667 251.81979561 C-96.42644885 256.92205046 -96.42758331 262.02430534 -96.42872429 267.12656021 C-96.42902202 268.40158444 -96.42931975 269.67660866 -96.4296265 270.99026998 C-96.43282825 285.49715604 -96.43260785 300.0040411 -96.42988586 314.5109272 C-96.42971036 315.50500047 -96.42971036 315.50500047 -96.42953131 316.51915603 C-96.42558098 338.01396237 -96.40073839 359.50869372 -96.36718372 381.00347201 C-96.33184044 403.7446313 -96.3265519 426.48564856 -96.35081375 449.22682393 C-96.36424028 462.83877036 -96.35287811 476.4502427 -96.30968468 490.06212927 C-96.28222879 499.38927849 -96.28387069 508.71613656 -96.30839916 518.04329287 C-96.32164335 523.42412699 -96.32186215 528.80413637 -96.28711128 534.18489265 C-96.25554362 539.11389942 -96.2610078 544.04144708 -96.29552959 548.97042121 C-96.30151239 550.75029018 -96.29405286 552.53026767 -96.27155127 554.31000446 C-96.14184147 565.27967537 -97.32293258 572.65280971 -105.29121399 580.88446236 C-105.99119228 581.63170724 -106.69117056 582.37895212 -107.41236031 583.14884079 C-115.12425895 591.04244038 -128.17484788 597.9982356 -139.29121399 598.88446236 C-140.27219055 598.96438423 -141.25316711 599.04430611 -142.26387024 599.12664986 C-155.60803444 599.66741456 -169.33540335 595.30837168 -179.31465149 586.22821236 C-189.95871305 576.02320542 -189.95871305 576.02320542 -190.66726148 569.33464843 C-190.68304527 567.93502531 -190.68239609 566.53515782 -190.66873741 565.13551235 C-190.67309773 564.35848397 -190.67745806 563.58145559 -190.68195051 562.7808809 C-190.69293139 560.16738952 -190.68247151 557.554423 -190.67216492 554.94093513 C-190.67562043 553.05203741 -190.68038427 551.16314169 -190.68634665 549.27425021 C-190.69890242 544.07551944 -190.69266531 538.87695329 -190.68338799 533.67822182 C-190.67661595 528.07394793 -190.68706998 522.46970286 -190.69532776 516.86543465 C-190.7086904 505.87976594 -190.7057751 494.89415862 -190.69708984 483.90848748 C-190.69031917 474.97473532 -190.68939392 466.04100038 -190.69266129 457.1072464 C-190.69312098 455.83645469 -190.69358068 454.56566298 -190.69405431 453.25636243 C-190.69501349 450.67473326 -190.69598613 448.09310409 -190.69697209 445.51147493 C-190.70529031 421.97114372 -190.69665421 398.43085369 -190.6809443 374.89052985 C-190.6667293 353.42730774 -190.66796199 331.96413906 -190.68232727 310.50091743 C-190.69841927 286.37722287 -190.70468838 262.2535648 -190.69549048 238.12986296 C-190.69453486 235.55366974 -190.69359174 232.9774765 -190.69266129 230.40128326 C-190.69219846 229.1338003 -190.69173563 227.86631733 -190.69125878 226.56042579 C-190.68867366 217.64857707 -190.69303002 208.73674736 -190.70009995 199.82490158 C-190.70853955 188.9471827 -190.70618412 178.06952871 -190.69025771 167.1918172 C-190.6824048 161.64636156 -190.67923199 156.10101386 -190.68920517 150.55555916 C-190.69821596 145.46792902 -190.69311511 140.38050575 -190.67727251 135.29289409 C-190.67395126 133.46299318 -190.67555803 131.6330744 -190.68289988 129.8031852 C-190.7392665 114.57257212 -189.2431094 99.7000413 -184.72871399 85.07196236 C-184.47968323 84.25848335 -184.23065247 83.44500435 -183.97407532 82.60687447 C-179.14132794 67.59283362 -172.03940332 53.30160503 -162.29121399 40.88446236 C-161.86727356 40.34386177 -161.44333313 39.80326118 -161.00654602 39.24627876 C-140.13119214 12.90992621 -109.00681123 -5.35626929 -75.41621399 -9.68194389 C-48.758307 -12.33147977 -25.05827968 -8.48539158 0 0 Z " fill="#F2C813" transform="translate(239.2912139892578,26.115537643432617)"/>
<path d="M0 0 C1.18409203 -0.0098568 1.18409203 -0.0098568 2.3921051 -0.01991272 C4.99708162 -0.0395728 7.60200053 -0.05129539 10.20703125 -0.0612793 C11.10192261 -0.06535482 11.99681396 -0.06943035 12.91882324 -0.07362938 C17.66056077 -0.09446453 22.40226962 -0.10877423 27.14404297 -0.11816406 C32.01134196 -0.12919047 36.87817902 -0.16355395 41.74531555 -0.20333576 C45.51345595 -0.22964689 49.28148898 -0.23786893 53.04971313 -0.24144554 C54.84204204 -0.2462784 56.63436723 -0.25779659 58.42660522 -0.27648354 C75.5622655 -0.44396849 89.8120487 2.4096932 102.83203125 14.48950195 C111.45515391 23.73150901 117.14070579 36.31578213 117.14718175 48.9790808 C117.1517057 50.73330968 117.1517057 50.73330968 117.15632105 52.52297753 C117.15455158 53.80621795 117.15278211 55.08945836 117.15095901 56.41158485 C117.15260895 57.79548072 117.15469536 59.17937613 117.15717912 60.56327075 C117.16275172 64.38247895 117.16207227 68.20166475 117.16040153 72.02087572 C117.15967135 76.16981298 117.16469121 80.31874387 117.16897655 84.46767843 C117.17656318 92.70392762 117.17874994 100.94017033 117.1793056 109.17642266 C117.18021858 119.03878543 117.18688417 128.90114219 117.19365242 138.76350238 C117.20972136 162.60190878 117.21561664 186.44031454 117.22040117 210.27872538 C117.22273614 221.55294694 117.22633868 232.82716798 117.23009655 244.10138914 C117.24293261 282.68438611 117.25365194 321.26738279 117.25709915 359.85038185 C117.25732079 362.27292966 117.25754257 364.69547746 117.2577645 367.11802527 C117.25798514 369.546467 117.25820563 371.97490874 117.25842595 374.40335047 C117.25886851 379.27532935 117.25931562 384.14730823 117.25976562 389.01928711 C117.25992971 390.83124181 117.25992971 390.83124181 117.26009711 392.67980166 C117.26372845 431.855973 117.27965112 471.03212585 117.30295599 510.20829012 C117.32754283 551.61508993 117.34127145 593.02187917 117.34246707 634.4286865 C117.34263853 638.97266412 117.34285396 643.51664174 117.3431015 648.06061935 C117.34315727 649.17949709 117.34321304 650.29837482 117.3432705 651.45115794 C117.34442192 669.46981508 117.35545166 687.48845327 117.36998856 705.507104 C117.38434313 723.61260396 117.38759642 741.71807959 117.37954858 759.82358368 C117.37508747 770.58365229 117.37897217 781.34364241 117.39478709 792.10370074 C117.40452304 799.28992192 117.40337207 806.47608801 117.39335086 813.66230867 C117.38794886 817.75768444 117.38728077 821.85290928 117.39985958 825.94827266 C117.41121733 829.67719443 117.40865365 833.40584278 117.3951925 837.13475519 C117.3916248 839.10098169 117.40271755 841.06721834 117.41448379 843.03341287 C117.33361921 856.72064063 113.60058587 871.18938372 103.9609375 881.45825195 C92.18193497 891.88634272 79.56918614 897.25314195 63.67578125 897.33813477 C62.9658754 897.34309967 62.25596954 897.34806458 61.52455139 897.35317993 C59.18953455 897.36771143 56.85458578 897.37459087 54.51953125 897.38012695 C53.71506561 897.38295433 52.91059998 897.38578171 52.08175659 897.38869476 C47.81866125 897.40365617 43.55559945 897.41290301 39.29248047 897.41723633 C34.92646711 897.42269523 30.56076966 897.44667704 26.19485474 897.47520828 C22.80583862 897.49400104 19.41689581 897.49904916 16.02783203 897.5005722 C14.42055549 897.50356539 12.81327917 897.51147842 11.20605469 897.52475739 C-7.41728604 897.66755675 -22.72918818 894.8051945 -36.7578125 881.5324707 C-49.00809088 868.55018975 -51.29416937 853.56024999 -51.23773766 836.31180286 C-51.24043572 834.93265834 -51.24400619 833.55351531 -51.24836212 832.17437503 C-51.25777458 828.39627692 -51.25483434 824.6182758 -51.24980658 820.84017307 C-51.24652962 816.72531611 -51.25483106 812.61047943 -51.26162493 808.49562901 C-51.2719183 801.28749344 -51.27476988 794.07938472 -51.27271271 786.87124252 C-51.26966102 776.15218808 -51.2779904 765.43316332 -51.28846196 754.71411466 C-51.3078003 734.45518907 -51.31343011 714.19627361 -51.31457607 693.93733988 C-51.31549527 678.29223655 -51.31961251 662.64713718 -51.32597733 647.00203514 C-51.32777242 642.4981094 -51.32955205 637.99418366 -51.33132708 633.49025792 C-51.33176918 632.37056 -51.33221127 631.25086208 -51.33266677 630.09723392 C-51.34497453 598.60375738 -51.35286796 567.11028222 -51.35198021 535.61680317 C-51.35194905 534.42951319 -51.35191789 533.24222321 -51.35188579 532.01895475 C-51.35171958 526.00131562 -51.3515215 519.9836765 -51.35131638 513.96603737 C-51.35127649 512.77091877 -51.3512366 511.57580018 -51.3511955 510.34446587 C-51.35111462 507.92764519 -51.35103103 505.51082452 -51.35094471 503.09400384 C-51.34971917 465.49120194 -51.36473325 427.88843611 -51.39208984 390.28564453 C-51.42281425 348.03627246 -51.44002214 305.78692409 -51.4381634 263.53754014 C-51.43801414 259.03204262 -51.43791673 254.52654511 -51.43785477 250.02104759 C-51.43783146 248.91168488 -51.43780815 247.80232216 -51.43778413 246.6593424 C-51.4377226 228.81122702 -51.4504912 210.96314297 -51.4677193 193.11503691 C-51.48467702 175.17596609 -51.48664849 157.23694108 -51.47350065 139.29786668 C-51.46611259 128.64322085 -51.46976525 117.98871424 -51.48938533 107.33408317 C-51.50139135 100.21196253 -51.49878733 93.08994264 -51.48444434 85.96782661 C-51.47668666 81.91323681 -51.47511403 77.85891626 -51.49135904 73.80434553 C-51.6385597 34.46502244 -51.6385597 34.46502244 -40.98046875 20.17700195 C-40.21089844 19.11932617 -40.21089844 19.11932617 -39.42578125 18.0402832 C-29.84952374 6.01268705 -15.04440225 0.05483574 0 0 Z " fill="#F2C812" transform="translate(774.98046875,431.822998046875)"/>
<path d="M0 0 C1.00852776 -0.0098568 1.00852776 -0.0098568 2.03742981 -0.01991272 C4.2528192 -0.03954713 6.46814088 -0.05129049 8.68359375 -0.0612793 C9.44609436 -0.06535482 10.20859497 -0.06943035 10.99420166 -0.07362938 C15.03568241 -0.09445516 19.07712963 -0.10876802 23.11865234 -0.11816406 C27.25957858 -0.12917958 31.39996022 -0.16353249 35.54069519 -0.20333576 C38.75295901 -0.2296957 41.9650973 -0.23787322 45.17745972 -0.24144554 C46.70184986 -0.24626713 48.22623612 -0.25775189 49.7505188 -0.27648354 C66.99869392 -0.47515301 81.09402455 3.79923095 93.828125 15.72387695 C103.63948201 26.22052465 107.27713688 39.19164083 107.25531483 53.17320251 C107.25766706 54.19316631 107.26001929 55.21313011 107.2624428 56.26400191 C107.26913369 59.70368114 107.26867455 63.14332261 107.26826477 66.58300781 C107.27156334 69.06531329 107.27528889 71.54761823 107.27940625 74.02992249 C107.28838241 80.15079826 107.29265403 86.27166274 107.29492522 92.3925442 C107.29788771 99.72315554 107.30658542 107.05375729 107.3153395 114.3843636 C107.33618321 132.10356635 107.34665367 149.82277076 107.3554691 167.54198292 C107.35967581 175.9247681 107.36489777 184.30755256 107.37015363 192.69033714 C107.38804396 221.3863604 107.40303982 250.08238386 107.41047382 278.77841187 C107.41094858 280.57995093 107.41142447 282.38148999 107.41190149 284.18302906 C107.41213786 285.07642902 107.41237424 285.96982899 107.41261778 286.89030168 C107.41381897 291.41669527 107.41503442 295.94308884 107.41625977 300.46948242 C107.41661999 301.81689619 107.41661999 301.81689619 107.41698749 303.19153044 C107.4248799 332.31385865 107.44831048 361.43614613 107.48081571 390.55845656 C107.5151203 421.34908292 107.53482555 452.13968544 107.53811806 482.93033123 C107.5385356 486.31106759 107.53901516 489.69180394 107.53954124 493.07254028 C107.53966444 493.90497102 107.53978763 494.73740176 107.53991455 495.59505767 C107.54224581 508.98648311 107.55790162 522.37786121 107.57838309 535.76926979 C107.59864781 549.2326727 107.60411533 562.6960188 107.59461246 576.15943414 C107.5894 584.15522429 107.59526286 592.15082519 107.61714713 600.14658808 C107.63226285 606.12158226 107.62640278 612.09636426 107.61247661 618.07136929 C107.61009419 620.4853011 107.61445679 622.89925114 107.62630526 625.31315506 C107.71421503 644.40829213 106.11939249 659.55995955 92.74609375 674.30200195 C83.86611104 682.87064381 72.08819771 688.30589736 59.77319336 688.35400391 C58.67228363 688.3638607 58.67228363 688.3638607 57.5491333 688.37391663 C55.12390019 688.39359885 52.69872903 688.40530403 50.2734375 688.4152832 C49.02527347 688.42139649 49.02527347 688.42139649 47.751894 688.42763329 C43.34314347 688.44847752 38.93442387 688.46278348 34.52563477 688.47216797 C29.99551651 688.48319828 25.46589405 688.51756346 20.93595028 688.55733967 C17.43295955 688.58362628 13.93008451 688.59187067 10.42700386 688.59544945 C8.75861851 688.60028837 7.09023737 688.61182446 5.42194939 688.63048744 C-6.29904077 688.75340582 -16.09598627 687.55603702 -26.25390625 681.17700195 C-27.41019531 680.46543945 -27.41019531 680.46543945 -28.58984375 679.73950195 C-39.33199207 672.4069775 -46.06632459 661.66168407 -49.4274022 649.13233042 C-50.087981 644.80849916 -50.01993318 640.53310854 -50.01312733 636.16518402 C-50.01547956 635.14353185 -50.01783179 634.12187968 -50.0202553 633.06926835 C-50.02694627 629.62384572 -50.02648704 626.1784608 -50.02607727 622.73303223 C-50.02937583 620.24660195 -50.03310138 617.76017221 -50.03721875 615.27374315 C-50.04619495 609.14266489 -50.05046654 603.01159792 -50.05273772 596.88051398 C-50.0557002 589.5376915 -50.0643979 582.19487859 -50.073152 574.85206113 C-50.09399576 557.10334011 -50.10446617 539.35461743 -50.1132816 521.60588702 C-50.1174883 513.20914962 -50.12271027 504.81241293 -50.12796613 496.41567613 C-50.14585646 467.6719326 -50.16085233 438.92818887 -50.16828632 410.18444061 C-50.16876108 408.37990396 -50.16923697 406.57536731 -50.16971399 404.77083066 C-50.16995036 403.8759441 -50.17018674 402.98105754 -50.17043028 402.0590532 C-50.17163147 397.52512726 -50.17284692 392.99120133 -50.17407227 388.45727539 C-50.17431242 387.5575047 -50.17455257 386.65773402 -50.17479999 385.73069755 C-50.18269242 356.55986756 -50.20612301 327.38907824 -50.23862821 298.218266 C-50.27293271 267.37641108 -50.29263805 236.53457995 -50.29593056 205.69270563 C-50.2963481 202.30635229 -50.29682766 198.91999896 -50.29735374 195.53364563 C-50.29747694 194.69983174 -50.29760013 193.86601785 -50.29772705 193.00693687 C-50.30005832 179.59319547 -50.31571419 166.17950134 -50.33619559 152.76577678 C-50.3564602 139.27996974 -50.36192789 125.79421942 -50.35242496 112.30839998 C-50.34721245 104.29927923 -50.35307557 96.29034743 -50.37495963 88.28125391 C-50.39007512 82.2963364 -50.38421543 76.31163074 -50.37028911 70.32670242 C-50.36790665 67.90873295 -50.37226948 65.49074529 -50.38411776 63.07280368 C-50.4709892 44.17136904 -49.06616929 28.9149541 -35.56640625 14.36450195 C-25.86709164 5.31469501 -13.17953246 0.10713686 0 0 Z " fill="#F2C811" transform="translate(536.87890625,560.822998046875)"/>
<path d="M0 0 C1.02293907 -0.0098568 1.02293907 -0.0098568 2.06654358 -0.01991272 C4.3198357 -0.03959102 6.57306104 -0.05130159 8.82641602 -0.0612793 C9.60086626 -0.06535482 10.37531651 -0.06943035 11.17323494 -0.07362938 C15.27954971 -0.09447578 19.3858313 -0.10877864 23.4921875 -0.11816406 C27.70152014 -0.12917189 31.91031588 -0.16350972 36.11946011 -0.20333576 C39.38233816 -0.22969397 42.64509259 -0.23787317 45.9080677 -0.24144554 C47.45757702 -0.24626916 49.00708243 -0.25775999 50.55648613 -0.27648354 C66.9073343 -0.46165014 80.67971653 3.10031851 92.95532227 14.48950195 C102.4817971 24.72248569 107.30832447 38.08072728 107.27425003 51.91147709 C107.27630266 52.6869263 107.2783553 53.46237551 107.28047013 54.26132318 C107.28614096 56.86922343 107.28468277 59.47707087 107.28326416 62.0849762 C107.28584775 63.96989835 107.2888609 65.85481995 107.29226756 67.73974079 C107.30034161 72.92720022 107.30212736 78.11464582 107.30286503 83.30211079 C107.3047149 88.89399215 107.31226194 94.48586632 107.31900024 100.07774353 C107.33258736 112.30926707 107.33860899 124.54078734 107.3430109 136.77231717 C107.3457729 144.40937383 107.3500102 152.04642923 107.35451508 159.68348503 C107.36670865 180.82674493 107.3770429 201.97000376 107.38039017 223.11326694 C107.3806118 224.48040998 107.38083358 225.84755301 107.38105552 227.21469605 C107.38127616 228.58512046 107.38149664 229.95554487 107.38171697 231.32596928 C107.38215952 234.07522301 107.38260663 236.82447674 107.38305664 239.57373047 C107.38322073 240.59621209 107.38322073 240.59621209 107.38338813 241.6393499 C107.38701776 263.73590115 107.40293424 285.83241958 107.426247 307.92895826 C107.45085651 331.2973744 107.46455683 354.66576655 107.46575809 378.03419822 C107.46667478 390.76992873 107.47242569 403.50561625 107.4905777 416.24133492 C107.50598129 427.08701101 107.51109762 437.93263084 107.5028396 448.77831579 C107.49893393 454.31088255 107.49985872 459.84333602 107.51389694 465.37588882 C107.52664068 470.44469181 107.52543406 475.51329646 107.51330623 480.58209919 C107.51135006 482.41189731 107.51442396 484.2417095 107.52315059 486.07148785 C107.60024777 503.33565084 105.30390159 518.85179646 92.95532227 532.05200195 C79.98970938 544.0473989 66.44536159 546.65494692 49.47094727 546.64575195 C47.85967755 546.65287126 46.24841032 546.66057277 44.637146 546.66882324 C41.27177881 546.68220751 37.90664596 546.68386496 34.54125977 546.67797852 C30.2669678 546.67209693 25.9938174 546.70263762 21.71974564 546.7430954 C18.39416643 546.76917908 15.06885432 546.77183115 11.74318695 546.76820374 C10.16939178 546.76987665 8.59558175 546.77933899 7.02188873 546.79734802 C-8.27291823 546.95311021 -21.13470959 543.76802934 -32.85717773 533.17700195 C-42.66348814 522.91731761 -48.19588917 511.24417816 -48.11444664 496.97967911 C-48.11795271 496.19063812 -48.12145879 495.40159714 -48.12507111 494.58864582 C-48.13435299 491.9525197 -48.12947012 489.31661607 -48.12460327 486.68048096 C-48.12834115 484.76821963 -48.13294322 482.85595984 -48.13833392 480.94370246 C-48.1505623 475.69459683 -48.15030363 470.44555494 -48.14794517 465.19643831 C-48.14753696 459.53302816 -48.15857649 453.86963843 -48.1680603 448.20623779 C-48.18467029 437.1127192 -48.19016985 426.01922186 -48.19128506 414.92569187 C-48.19223551 405.90805654 -48.19634567 396.89042822 -48.20268631 387.8727951 C-48.21743296 366.46434094 -48.22973605 345.05589368 -48.22868919 323.64743423 C-48.22865804 322.96301782 -48.22862688 322.27860141 -48.22859478 321.57344511 C-48.22842857 318.10466841 -48.22823048 314.6358917 -48.22802536 311.167115 C-48.22798547 310.47822408 -48.22794558 309.78933317 -48.22790448 309.07956677 C-48.22782361 307.68646178 -48.22774001 306.2933568 -48.2276537 304.90025182 C-48.22642834 283.22847763 -48.24143966 261.55676604 -48.26879883 239.88500977 C-48.29953625 215.52732761 -48.316705 191.16969704 -48.31487238 166.81199241 C-48.31420843 153.91868226 -48.31970327 141.02544271 -48.34122849 128.13214874 C-48.35943769 117.15477774 -48.36378967 106.17750934 -48.35020964 95.20012978 C-48.34367881 89.60067892 -48.34356719 84.00142493 -48.36091614 78.4019928 C-48.37664639 73.27219123 -48.37378344 68.14274263 -48.35634787 63.01294968 C-48.35327792 61.16103443 -48.35691017 59.30909284 -48.36806802 57.45720866 C-48.46347293 40.49403683 -45.17530767 25.77508939 -32.85717773 13.17700195 C-23.33721097 5.3287484 -12.40273327 0.09918534 0 0 Z " fill="#F2C811" transform="translate(305.857177734375,627.822998046875)"/>
<path d="M0 0 C0.66259827 -0.0065712 1.32519653 -0.0131424 2.00787354 -0.01991272 C4.19079734 -0.03954458 6.37365242 -0.05129 8.55664062 -0.0612793 C9.30810867 -0.06535482 10.05957672 -0.06943035 10.83381653 -0.07362938 C14.81694254 -0.09445423 18.80003455 -0.1087674 22.78320312 -0.11816406 C26.8635989 -0.1291785 30.94344184 -0.16353035 35.02364349 -0.20333576 C38.18958428 -0.22970055 41.35539774 -0.23787365 44.5214386 -0.24144554 C46.0235006 -0.24626601 47.52555871 -0.25774744 49.0275116 -0.27648354 C64.71952102 -0.45995712 76.5744663 3.37340831 89.40039062 12.42700195 C97.1589505 20.01314939 104.75246422 31.47671456 105.34284246 42.63259161 C105.3451731 43.5591146 105.34750375 44.4856376 105.34990501 45.44023705 C105.35497956 46.51245329 105.3600541 47.58466954 105.36528242 48.68937719 C105.36578017 49.86658822 105.36627793 51.04379925 105.36679077 52.25668335 C105.37336415 54.13359421 105.37336415 54.13359421 105.38007033 56.04842246 C105.39202376 59.52404029 105.39768145 62.99964426 105.40225148 66.47527862 C105.40821247 70.22330492 105.41982129 73.97131469 105.43054199 77.71932983 C105.45505797 86.77379167 105.46969369 95.82825897 105.48260206 104.88274378 C105.48631513 107.44148557 105.49028829 110.00022682 105.49435472 112.55896807 C105.51959673 128.4575722 105.54164407 144.35617723 105.55408287 160.25479698 C105.55701245 163.93703591 105.55997413 167.61927481 105.56298828 171.30151367 C105.56373433 172.21668867 105.56448038 173.13186367 105.56524904 174.07477124 C105.57789146 188.88639651 105.61109964 203.69790144 105.65279011 218.50947051 C105.69526928 233.72641252 105.71878496 248.94329304 105.72400343 264.16029418 C105.7274112 272.69984425 105.73909094 281.2392064 105.77210617 289.77869797 C105.80019044 297.05463452 105.81106955 304.33034462 105.79991071 311.60633115 C105.79474497 315.31451232 105.79747323 319.02221992 105.82237625 322.73033142 C105.84923127 326.76303935 105.83673753 330.79471788 105.82089233 334.82748413 C105.83477442 335.98238795 105.84865651 337.13729176 105.86295927 338.32719266 C105.73531769 351.58757166 101.10942517 363.33004953 92.21289062 373.17700195 C79.03686109 385.77078468 65.76720287 388.49589003 48.13867188 388.51293945 C46.56698998 388.51937978 44.99530925 388.52610902 43.42362976 388.53311157 C40.13631415 388.54504626 36.8491033 388.54879649 33.56176758 388.54760742 C29.3838977 388.54740479 25.20671232 388.57466533 21.0290041 388.60915184 C17.78326945 388.63157767 14.53769523 388.63544016 11.2918911 388.63438797 C9.75355873 388.63672202 8.21522041 388.64541909 6.67696571 388.6610527 C-8.94841786 388.8049585 -22.40995566 385.72458124 -34.25976562 374.9230957 C-46.64999176 362.03643313 -49.93711651 347.4413624 -49.9342804 330.20558167 C-49.93795708 329.00215825 -49.94163377 327.79873483 -49.94542187 326.55884403 C-49.95451173 323.23066967 -49.95915024 319.90254446 -49.96181118 316.5743624 C-49.96572974 312.97972775 -49.97530693 309.38510718 -49.98402405 305.79048157 C-50.00374475 297.11545989 -50.01384906 288.44043713 -50.02275184 279.76539865 C-50.02714193 275.67359953 -50.03250686 271.58180169 -50.03774071 267.49000359 C-50.05474856 253.87675654 -50.06924089 240.26351028 -50.07648945 226.65025425 C-50.07839914 223.12116558 -50.0803195 219.59207692 -50.08227539 216.06298828 C-50.08275913 215.18592179 -50.08324287 214.30885529 -50.08374127 213.40521102 C-50.09203483 199.20946604 -50.11736233 185.0138055 -50.14985607 170.81809736 C-50.18299091 156.22255665 -50.200944 141.62705876 -50.20413369 127.03148025 C-50.20629284 118.84517324 -50.21495396 110.65898939 -50.24059486 102.47271919 C-50.26238985 95.4984963 -50.27030932 88.5244265 -50.26062808 81.55017341 C-50.25610868 77.99773042 -50.25783008 74.44560269 -50.27738953 70.89320374 C-50.46649309 34.49356708 -50.46649309 34.49356708 -39.78710938 20.17700195 C-39.01753906 19.11932617 -39.01753906 19.11932617 -38.23242188 18.0402832 C-29.05526313 6.51394746 -14.53369864 0.11990387 0 0 Z " fill="#F2C812" transform="translate(73.787109375,706.822998046875)"/>
<path d="M0 0 C0.66 0.33 1.32 0.66 2 1 C-4.6 7.6 -11.2 14.2 -18 21 C-18.66 20.67 -19.32 20.34 -20 20 C-17.98406752 17.78702148 -15.96250115 15.57965623 -13.9375 13.375 C-13.37611328 12.75753906 -12.81472656 12.14007813 -12.23632812 11.50390625 C-8.39290663 7.33104863 -4.3703098 3.61872786 0 0 Z " fill="#F5D64F" transform="translate(99,44)"/>
<path d="M0 0 C0.66 0.33 1.32 0.66 2 1 C-2.29 5.29 -6.58 9.58 -11 14 C-11 10.30159372 -10.17133056 9.68584567 -7.75 7 C-7.14671875 6.319375 -6.5434375 5.63875 -5.921875 4.9375 C-4.06233388 3.06284066 -2.15205789 1.52358081 0 0 Z " fill="#F5D54B" transform="translate(45,716)"/>
<path d="M0 0 C0.66 0.33 1.32 0.66 2 1 C-2.29 5.29 -6.58 9.58 -11 14 C-11 10.30159372 -10.17133056 9.68584567 -7.75 7 C-7.14671875 6.319375 -6.5434375 5.63875 -5.921875 4.9375 C-4.06233388 3.06284066 -2.15205789 1.52358081 0 0 Z " fill="#F5D54B" transform="translate(745,441)"/>
<path d="M0 0 C0.66 0.33 1.32 0.66 2 1 C-1.96 4.96 -5.92 8.92 -10 13 C-10 8.83248505 -7.76127698 6.85829482 -5 4 C-3.36927384 2.62294236 -1.7133562 1.27277889 0 0 Z " fill="#F5D54A" transform="translate(278,637)"/>
</svg>
