<?xml version="1.0" encoding="UTF-8"?>
<svg version="1.1" xmlns="http://www.w3.org/2000/svg" width="512" height="512">
<path d="M0 0 C1.01790619 0.00215515 2.03581238 0.0043103 3.08456421 0.00653076 C17.69363523 0.05620146 32.02575853 0.30709809 46.375 3.3125 C47.34985352 3.51117676 48.32470703 3.70985352 49.32910156 3.91455078 C88.38660539 12.08468046 124.82400319 27.71035417 156.375 52.3125 C157.25929688 52.98539063 158.14359375 53.65828125 159.0546875 54.3515625 C174.64487101 66.4551235 189.25704477 80.75418497 201.375 96.3125 C202.52162109 97.71628906 202.52162109 97.71628906 203.69140625 99.1484375 C238.32002637 142.39252491 256.81365997 197.89189907 256.69067383 253.03979492 C256.6875221 255.97938487 256.71104926 258.9179558 256.73632812 261.85742188 C256.78098737 275.23056192 255.57551542 288.12666711 253.375 301.3125 C253.09281616 303.01805054 253.09281616 303.01805054 252.80493164 304.75805664 C245.77946967 343.86954746 228.79665906 381.05202178 204.375 412.3125 C203.61574219 413.28445313 202.85648437 414.25640625 202.07421875 415.2578125 C189.73986402 430.63741644 175.93895499 445.19015196 160.375 457.3125 C159.43914062 458.07691406 158.50328125 458.84132813 157.5390625 459.62890625 C125.58628299 485.2157721 86.41988322 501.72551276 46.375 509.3125 C45.56562988 509.47621094 44.75625977 509.63992188 43.92236328 509.80859375 C13.88110013 515.67977137 -20.7615176 514.58512909 -50.625 508.3125 C-52.14794678 507.99901611 -52.14794678 507.99901611 -53.70166016 507.67919922 C-90.84546555 499.78695344 -125.70945445 483.68345578 -155.625 460.3125 C-156.59695312 459.55324219 -157.56890625 458.79398437 -158.5703125 458.01171875 C-173.94991644 445.67736402 -188.50265196 431.87645499 -200.625 416.3125 C-201.77162109 414.90871094 -201.77162109 414.90871094 -202.94140625 413.4765625 C-228.5282721 381.52378299 -245.03801276 342.35738322 -252.625 302.3125 C-252.78871094 301.50312988 -252.95242187 300.69375977 -253.12109375 299.85986328 C-258.59069558 271.87335724 -258.46977511 238.21828161 -252.625 210.3125 C-252.42632324 209.33764648 -252.22764648 208.36279297 -252.02294922 207.35839844 C-241.93598313 159.13741149 -219.89911449 114.53770064 -185.40722656 79.14160156 C-183.63301167 77.32072238 -181.87518486 75.48496071 -180.1171875 73.6484375 C-173.01562574 66.30860161 -165.60158994 59.73928631 -157.40917969 53.64355469 C-155.59628085 52.2910746 -153.80174757 50.91656557 -152.0078125 49.5390625 C-143.60124472 43.15234877 -134.85975388 37.61076633 -125.65234375 32.45166016 C-123.78933792 31.40484113 -121.94116361 30.33571119 -120.09375 29.26171875 C-83.4933446 8.69459905 -41.63834482 -0.15855121 0 0 Z M-107.48046875 136.01953125 C-110.95403266 139.733524 -113.40777425 143.20675884 -113.76953125 148.37890625 C-113.28911166 155.22163939 -109.60292317 159.55044254 -104.8125 164.1875 C-77.41063213 187.50351399 -34.38214689 190.74969991 0 190.625 C1.01557983 190.62350952 2.03115967 190.62201904 3.07751465 190.6204834 C17.72408751 190.58180763 31.96857297 190.18018861 46.375 187.3125 C47.5211377 187.10367188 47.5211377 187.10367188 48.69042969 186.890625 C70.53707637 182.88648781 97.99514915 176.0189824 111.90625 157.24609375 C114.25727408 153.18740016 114.90492853 149.78667329 113.96484375 145.17578125 C111.08636996 136.0828541 101.96117538 129.47787559 93.87402344 125.13549805 C40.54648046 98.17864651 -61.15736616 92.46851984 -107.48046875 136.01953125 Z M-113.625 180.3125 C-113.69934992 186.04163803 -113.75369672 191.77049301 -113.78979492 197.5 C-113.80484899 199.44764094 -113.8252968 201.39524816 -113.85131836 203.34277344 C-113.88785053 206.14787128 -113.90476033 208.95251954 -113.91796875 211.7578125 C-113.93345261 212.62366974 -113.94893646 213.48952698 -113.96488953 214.38162231 C-113.96684454 221.45990548 -112.0030389 226.3655206 -107.23046875 231.75390625 C-79.30018236 258.86870982 -28.28651281 260.95455698 8.0703125 260.49609375 C40.53003084 259.81862231 82.07424456 255.06117924 107.375 232.3125 C111.58790491 227.64731504 114.50839664 223.66640714 114.48852539 217.20825195 C114.48844986 216.38762772 114.48837433 215.56700348 114.48829651 214.72151184 C114.48313522 213.84017075 114.47797394 212.95882965 114.47265625 212.05078125 C114.4712413 211.14498825 114.46982635 210.23919525 114.46836853 209.30595398 C114.46277001 206.41226909 114.45021781 203.51866151 114.4375 200.625 C114.43248481 198.66341258 114.42792193 196.70182394 114.42382812 194.74023438 C114.41280107 189.93095979 114.39553747 185.121743 114.375 180.3125 C113.29375854 180.90236694 113.29375854 180.90236694 112.19067383 181.50415039 C110.19860698 182.59083826 108.20615914 183.67682793 106.21337891 184.76220703 C104.14135788 185.89392331 102.0748759 187.03579784 100.01171875 188.18359375 C85.66814259 195.80183751 70.1251268 200.00894614 54.25 203.125 C53.26354492 203.31980957 52.27708984 203.51461914 51.26074219 203.71533203 C34.52611452 206.78776853 17.73287756 207.69460116 0.75 207.625 C-0.1588797 207.62350952 -1.0677594 207.62201904 -2.00418091 207.6204834 C-17.04872847 207.57636594 -31.76479307 206.84275875 -46.625 204.3125 C-47.4794873 204.16796387 -48.33397461 204.02342773 -49.21435547 203.87451172 C-70.6711331 200.09097917 -92.50459299 193.92469849 -110.68359375 181.59765625 C-112.37593605 180.22050217 -112.37593605 180.22050217 -113.625 180.3125 Z M-113.625 249.3125 C-113.69931567 255.46888608 -113.75368084 261.62500935 -113.78979492 267.78173828 C-113.80485469 269.87488353 -113.82530671 271.96799736 -113.85131836 274.06103516 C-113.88782501 277.07462328 -113.90475473 280.08779312 -113.91796875 283.1015625 C-113.93345261 284.03304108 -113.94893646 284.96451965 -113.96488953 285.92422485 C-113.96686992 293.61933836 -111.83201502 298.55094728 -106.625 304.3125 C-81.34567738 325.45451606 -43.16028033 332.34195587 -11.0859375 332.515625 C-10.21046265 332.52268463 -9.33498779 332.52974426 -8.4329834 332.53701782 C30.52671508 332.77975066 77.45865496 331.18419281 108.25390625 303.81640625 C113.80930708 297.25837322 114.95491156 291.35193914 114.765625 282.90625 C114.75713531 281.45829041 114.75713531 281.45829041 114.74847412 279.9810791 C114.72623963 276.92436283 114.67606775 273.86885672 114.625 270.8125 C114.60491828 268.7291837 114.58667045 266.64584887 114.5703125 264.5625 C114.52641725 259.4787066 114.45748003 254.39580785 114.375 249.3125 C113.67592529 249.77140625 112.97685059 250.2303125 112.2565918 250.703125 C64.27937238 281.78730221 -3.15779153 282.81660695 -57.59863281 271.96923828 C-77.85109949 267.57434192 -96.30174713 260.6843161 -113.625 249.3125 Z M-113.625 321.3125 C-113.7268729 327.57456481 -113.79666281 333.83641392 -113.84472656 340.09912109 C-113.86477468 342.22713202 -113.89202054 344.35508832 -113.92675781 346.48291016 C-113.97557548 349.55124433 -113.99803726 352.61884673 -114.015625 355.6875 C-114.03627014 356.63052979 -114.05691528 357.57355957 -114.07818604 358.54516602 C-114.08059365 365.71986545 -112.33898786 370.68034709 -108.0546875 376.4140625 C-103.39504786 380.98004104 -98.3443346 384.20548667 -92.625 387.3125 C-91.88894531 387.73273438 -91.15289062 388.15296875 -90.39453125 388.5859375 C-43.75873872 413.79013519 23.15403833 410.70809365 72.375 396.3125 C86.90498735 391.65741506 104.71144833 384.89009183 112.48974609 370.80419922 C114.89699004 365.84459851 114.88730915 361.33561862 114.765625 355.90625 C114.75713531 354.45829041 114.75713531 354.45829041 114.74847412 352.9810791 C114.72623963 349.92436283 114.67606775 346.86885672 114.625 343.8125 C114.60491828 341.7291837 114.58667045 339.64584887 114.5703125 337.5625 C114.52641725 332.4787066 114.45748003 327.39580785 114.375 322.3125 C112.65363041 323.25127379 110.93228006 324.19008288 109.2109375 325.12890625 C108.2523584 325.65170166 107.2937793 326.17449707 106.30615234 326.71313477 C104.37315971 327.7678603 102.44188162 328.82573501 100.51245117 329.88696289 C58.41627928 352.72467814 0.66977958 354.14815904 -45.625 346.3125 C-46.4809375 346.16796387 -47.336875 346.02342773 -48.21875 345.87451172 C-63.96861061 343.0967531 -79.52461243 338.78933152 -94.1875 332.375 C-94.87658447 332.07561523 -95.56566895 331.77623047 -96.27563477 331.46777344 C-102.4172483 328.66110234 -107.99322758 325.01900269 -113.625 321.3125 Z " fill="#0191F7" transform="translate(255.625,-0.3125)"/>
</svg>
