<?xml version="1.0" standalone="no"?>
<!DOCTYPE svg PUBLIC "-//W3C//DTD SVG 20010904//EN"
 "http://www.w3.org/TR/2001/REC-SVG-20010904/DTD/svg10.dtd">
<svg version="1.0" xmlns="http://www.w3.org/2000/svg"
 width="840.000000pt" height="859.000000pt" viewBox="0 0 840.000000 859.000000"
 preserveAspectRatio="xMidYMid meet">

<g transform="translate(0.000000,859.000000) scale(0.100000,-0.100000)"
fill="#000000" stroke="none">
<path d="M4085 8546 c-71 -19 -86 -26 -215 -98 -219 -123 -615 -345 -665 -373
-27 -15 -140 -78 -250 -140 -110 -62 -222 -125 -250 -140 -55 -31 -217 -121
-425 -237 -74 -42 -187 -105 -250 -140 -63 -36 -135 -76 -160 -90 -25 -14
-103 -58 -175 -98 -262 -147 -716 -400 -935 -521 -180 -100 -236 -136 -285
-184 -72 -71 -110 -144 -125 -241 -7 -47 -10 -689 -8 -2029 l3 -1960 24 -60
c13 -33 39 -81 58 -107 57 -79 41 -69 623 -395 437 -245 1031 -578 1170 -656
69 -39 175 -98 235 -132 61 -34 171 -96 245 -137 74 -42 333 -187 575 -323
682 -384 724 -406 779 -428 69 -27 219 -29 291 -3 28 10 273 143 545 296 655
367 1843 1033 2050 1150 91 51 334 187 540 302 206 116 391 222 410 236 74 56
119 118 150 207 l21 60 -1 1993 c-1 1906 -2 1995 -19 2052 -38 120 -118 201
-302 304 -68 38 -140 78 -159 89 -19 11 -89 50 -155 87 -66 37 -259 145 -430
240 -170 95 -411 229 -535 298 -200 112 -279 156 -505 282 -33 18 -193 107
-355 198 -262 147 -451 251 -605 337 -27 15 -85 48 -128 72 -317 179 -493 274
-527 284 -57 17 -200 20 -255 5z m425 -1417 c705 -74 1362 -417 1839 -959 143
-162 310 -404 295 -427 -10 -15 -1215 -704 -1225 -701 -4 2 -34 39 -66 83
-231 313 -547 508 -922 570 -152 26 -417 16 -555 -19 -264 -68 -464 -177 -648
-355 -214 -205 -349 -445 -413 -733 -34 -156 -35 -427 0 -581 42 -188 132
-394 235 -540 121 -168 332 -348 519 -442 103 -51 289 -111 401 -130 123 -19
349 -19 463 0 379 67 697 264 919 570 32 44 63 88 70 97 12 15 20 13 93 -29
44 -25 134 -74 200 -111 66 -36 134 -73 150 -82 17 -9 107 -59 200 -110 94
-51 208 -114 255 -140 47 -26 137 -75 200 -110 63 -35 125 -69 137 -77 l23
-13 -51 -83 c-397 -637 -1024 -1096 -1739 -1271 -549 -134 -1092 -109 -1623
74 -850 293 -1537 1006 -1790 1860 -92 310 -121 508 -121 835 1 229 12 357 50
545 185 923 812 1695 1679 2067 259 111 561 189 825 212 69 6 143 13 165 15
59 6 326 -3 435 -15z"/>
</g>
</svg>
