<?xml version="1.0" encoding="UTF-8"?>
<svg version="1.1" xmlns="http://www.w3.org/2000/svg" width="980" height="980">
<path d="M0 0 C218.46 0 436.92 0 662 0 C660.85138439 19.52646536 660.85138439 19.52646536 660.1764555 26.85695267 C660.09954325 27.71636438 660.022631 28.57577609 659.94338807 29.46123058 C659.6901442 32.2838933 659.43318974 35.10620451 659.17619324 37.92852783 C658.9897914 39.99741233 658.80362261 42.06631783 658.61766416 44.13524222 C658.10958825 49.78049742 657.59823812 55.42545183 657.08632243 61.07035995 C656.53271171 67.18155426 655.98218625 73.29302662 655.43127441 79.40446472 C654.47486204 90.0095691 653.51653056 100.61449843 652.55684471 111.21930695 C651.54326765 122.41973135 650.53082589 133.62025747 649.5198307 144.82091522 C649.45648264 145.52273173 649.39313458 146.22454824 649.32786688 146.94763192 C649.00580744 150.51570787 648.68376769 154.08378561 648.3617355 157.65186402 C646.0776658 182.95869328 643.79114656 208.26530068 641.50317383 233.57177734 C639.31123399 257.81613658 637.12031129 282.06058733 634.9309082 306.30517578 C634.83086969 307.41295543 634.83086969 307.41295543 634.7288102 308.54311446 C633.99077491 316.71578747 633.252771 324.88846332 632.51478231 333.06114054 C631.183492 347.8041776 629.85206944 362.54720272 628.52058411 377.29022217 C628.45543393 378.01160808 628.39028376 378.732994 628.32315934 379.47624009 C626.50220999 399.63893553 624.68069937 419.80158016 622.85847778 439.96416065 C622.50015765 443.92898303 622.14186515 447.8938079 621.78357834 451.85863328 C620.73014107 463.51571809 619.67653082 475.17278713 618.62203171 486.82977594 C616.16971213 513.94003089 613.72435785 541.05088502 611.29301593 568.16302831 C610.80058375 573.65372144 610.30766182 579.14437043 609.81440455 584.6349895 C609.74546936 585.40234477 609.67653417 586.16970005 609.60551003 586.96030851 C609.32883973 590.03993424 609.05215057 593.11955827 608.77539631 596.19917645 C607.96599233 605.20597382 607.15820291 614.21291214 606.35328909 623.22011194 C605.85361654 628.81007014 605.35200342 634.39985203 604.84887103 639.98949988 C604.55805219 643.22120968 604.26846313 646.45302173 603.98066916 649.68500251 C603.66757664 653.19976588 603.35115219 656.71421387 603.03389454 660.22860336 C602.94319011 661.25607973 602.85248567 662.28355609 602.75903262 663.34216811 C602.67321789 664.28519364 602.58740315 665.22821917 602.49898797 666.19982123 C602.38987728 667.41791253 602.38987728 667.41791253 602.27856233 668.66061173 C601.98301495 671.14264175 601.52077918 673.55615191 601 676 C563.68652467 686.69539206 526.35750661 697.33436418 489 707.875 C488.1176405 708.12397285 487.23528099 708.37294571 486.32618332 708.6294632 C473.78226332 712.16877806 461.23757964 715.70538217 448.69264221 719.24108887 C444.19188398 720.50961073 439.69115626 721.77824083 435.19042969 723.046875 C434.30320347 723.29695753 433.41597725 723.54704006 432.50186539 723.80470085 C425.47141778 725.7864026 418.44107055 727.76846024 411.41076279 729.75065804 C406.53609178 731.12500622 401.66124486 732.49872754 396.78619003 733.87171364 C394.50630093 734.51396676 392.22656253 735.15675271 389.94683838 735.79959106 C387.00978433 736.62766717 384.07202191 737.4531598 381.13372803 738.27682495 C374.31707011 740.19127621 367.51116833 742.13395674 360.72565269 744.15639305 C357.51106037 745.11390829 354.29340168 746.06089665 351.07565689 747.00775528 C349.55063283 747.46013306 348.02723716 747.91804341 346.50567245 748.38192368 C344.39971835 749.02383159 342.28892203 749.64667015 340.17626953 750.26611328 C338.38215134 750.80572189 338.38215134 750.80572189 336.55178833 751.35623169 C330.40764813 752.46986865 324.89064371 751.12819583 318.9230957 749.43139648 C317.77315628 749.10755478 316.62321686 748.78371307 315.43843079 748.45005798 C314.19675644 748.09399979 312.95508209 747.73794159 311.67578125 747.37109375 C310.33028071 746.98988429 308.98462889 746.60920843 307.63883972 746.22901917 C304.73090625 745.40631971 301.82404754 744.57995928 298.91796875 743.75073242 C294.22168461 742.41072652 289.52311993 741.07884205 284.82421875 739.74804688 C278.93764283 738.0802745 273.0516561 736.41044934 267.1663723 734.73812294 C255.74307963 731.49223367 244.31581241 728.26055508 232.88671875 725.03515625 C231.5695968 724.6634389 231.5695968 724.6634389 230.22586632 724.28421211 C226.66469282 723.27921685 223.10350137 722.27428526 219.54227352 721.26948261 C213.27130475 719.50008359 207.00067273 717.72949513 200.73022461 715.95825195 C183.5068726 711.09327296 166.28240406 706.2323155 149.0546875 701.3828125 C147.44651273 700.93007453 145.83833808 700.47733609 144.23016357 700.02459717 C135.17480095 697.47544703 135.17480095 697.47544703 126.11889648 694.92822266 C111.06612884 690.69592586 96.01721773 686.45005912 80.97838211 682.16848373 C79.40375997 681.72044341 77.82895079 681.27305991 76.25394821 680.8263588 C74.07320215 680.20762559 71.89319876 679.58634263 69.71337891 678.96435547 C68.4636026 678.60872528 67.21382629 678.25309509 65.92617798 677.88668823 C63 677 63 677 61 676 C60.55605057 673.20057416 60.24707065 670.47719923 60.00794983 667.65748596 C59.92480839 666.76566461 59.84166694 665.87384325 59.75600606 664.954997 C59.4755108 661.92070467 59.20870468 658.88535631 58.94165039 655.84985352 C58.74207243 653.66004413 58.54166134 651.47031054 58.34048653 649.28064728 C57.78393919 643.19615507 57.23933622 637.11064117 56.69645095 631.02491689 C56.16374246 625.07460299 55.62205106 619.12510886 55.08057476 613.17558794 C53.95721497 600.82916008 52.84275512 588.48194322 51.73309326 576.13427734 C50.62067727 563.75645001 49.50445848 551.37897526 48.38311768 539.00195312 C48.3130368 538.22840658 48.24295593 537.45486004 48.17075139 536.65787269 C47.8131364 532.71082509 47.45544202 528.76378469 47.09770775 524.8167479 C46.35870926 516.66285102 45.62022363 508.50890769 44.88189697 500.35494995 C44.80709372 499.52885113 44.73229047 498.7027523 44.65522045 497.85162018 C43.483104 484.90623749 42.31339534 471.96063839 41.1449585 459.0149231 C40.98319508 457.22273492 40.82143109 455.43054679 40.65966654 453.63835871 C40.57904282 452.74512559 40.49841911 451.85189247 40.41535226 450.93159168 C35.9665472 401.64342962 31.49341313 352.35749965 27.01234035 303.07226151 C25.69731287 288.60881005 24.38283479 274.14530872 23.06867981 259.68177795 C22.96906379 258.58541213 22.86944777 257.4890463 22.76681308 256.35945726 C21.0658466 237.63857583 19.36510165 218.91767426 17.66444796 200.19676441 C16.6677741 189.22545237 15.6709418 178.25415477 14.67378616 167.28288651 C12.56079489 144.03412347 10.44898432 120.78525443 8.34116966 97.53602141 C7.37275332 86.85483647 6.40306849 76.17376845 5.43159607 65.49286101 C4.77879728 58.31424215 4.12763299 51.13547625 3.47781137 43.95658727 C3.1056867 39.84605462 2.73283808 35.73559104 2.35803711 31.62530148 C2.01671577 27.88198208 1.67745311 24.13848212 1.3398607 20.39482463 C1.15969683 18.40296118 0.97731353 16.41129886 0.79485494 14.4196443 C0.68896682 13.24082026 0.58307871 12.06199623 0.47398186 10.84745026 C0.38175405 9.83126318 0.28952625 8.81507611 0.19450366 7.76809549 C0.01294933 5.18428948 0 2.59017673 0 0 Z " fill="#D3B62A" transform="translate(159,114)"/>
<path d="M0 0 C88.77 0 177.54 0 269 0 C269 7.89516815 268.95306142 15.40496117 268.1953125 23.19921875 C268.11195145 24.10905518 268.02859039 25.0188916 267.94270325 25.95629883 C267.76599079 27.87925161 267.58672147 29.80197101 267.40499878 31.72445679 C266.92885782 36.7631439 266.47167565 41.80356443 266.01171875 46.84375 C265.9213887 47.82768234 265.83105865 48.81161469 265.73799133 49.82536316 C265.07197967 57.10858751 264.47233996 64.3933586 263.9375 71.6875 C262.43306035 91.94328876 260.65201285 112.17766839 258.5 132.375 C256.09661684 154.98192128 254.38967127 177.6537169 252.69897461 200.32324219 C252.19509614 206.91622131 251.53238453 213.47170278 250.74975586 220.03662109 C249.97321427 226.76057553 249.48242462 233.49934669 249 240.25 C247.91479091 255.39397826 246.5450495 270.49648218 245.0546875 285.60546875 C243.31457761 303.25518416 241.61474234 320.89637047 240.26513672 338.58105469 C239.76118645 345.07950738 239.22998849 351.57571475 238.69436646 358.07162476 C238.56787807 359.61127183 238.44239763 361.15100216 238.31808472 362.69082642 C237.67298131 370.68100206 236.94983514 378.65005487 236.02734375 386.61328125 C234.8791186 396.58440802 234.09517472 406.57984641 233.31097412 416.58514404 C232.04508715 432.70895569 230.69030942 448.81074632 229.00634766 464.89648438 C228.0614175 474.03558818 227.33622581 483.18114455 226.73388672 492.34912109 C226.32849018 498.31889667 225.76206282 504.25239069 225.0703125 510.1953125 C223.70950257 521.97793897 222.84818752 533.80073685 221.9375 545.625 C221.67723893 548.98833663 221.41608338 552.35159556 221.15272522 555.71469116 C220.99054775 557.78699293 220.83014528 559.85943468 220.67185974 561.93203735 C220.25187937 567.31274293 219.71754241 572.6506167 219 578 C218.04299194 578.2333606 218.04299194 578.2333606 217.06665039 578.47143555 C201.8019042 582.17484051 201.8019042 582.17484051 186.6875 586.4375 C178.19481839 589.0180499 169.60783331 591.20467034 161.01171875 593.41162109 C152.40212224 595.62548291 143.83418711 597.95805317 135.27685547 600.36425781 C130.94001583 601.57518752 126.59465504 602.75497911 122.25 603.9375 C121.45424561 604.15414307 120.65849121 604.37078613 119.83862305 604.59399414 C118.59592651 604.9322522 118.59592651 604.9322522 117.328125 605.27734375 C116.3683374 605.53870117 115.4085498 605.80005859 114.41967773 606.06933594 C112.62959355 606.5565067 110.83948263 607.04358001 109.04910278 607.52966309 C98.29915163 610.44842952 87.55713207 613.39541849 76.82015038 616.36150074 C69.41364932 618.40752321 62.0059664 620.44923191 54.59765053 622.48867321 C49.74997933 623.82348345 44.90300798 625.16074459 40.05737305 626.50292969 C35.3067779 627.81866324 30.55451366 629.12819705 25.8010273 630.43344498 C24.00428341 630.92799161 22.20815458 631.42477868 20.41267204 631.92388535 C17.9198489 632.61647512 15.4249672 633.30110268 12.92944336 633.98388672 C12.19652069 634.18952744 11.46359802 634.39516815 10.70846558 634.60704041 C6.90550038 635.63802409 4.01188299 636 0 636 C0 426.12 0 216.24 0 0 Z " fill="#FAD725" transform="translate(491,175)"/>
<path d="M0 0 C69.3 0 138.6 0 210 0 C210 6.56184485 209.98639413 13.04493195 209.66796875 19.5859375 C209.61205315 20.75789169 209.61205315 20.75789169 209.55500793 21.95352173 C209.47496208 23.60222713 209.39337827 25.25085854 209.31030273 26.89941406 C209.1908407 29.30765466 209.08249862 31.71621753 208.97460938 34.125 C208.22312164 49.20284997 206.56118924 63.90850402 205 79 C158.8 79 112.6 79 65 79 C65 116.95 65 154.9 65 194 C73.600625 192.989375 82.20125 191.97875 91.0625 190.9375 C112.56457822 188.42535343 134.06998111 185.94319174 155.58346558 183.5305481 C158.35267364 183.21991326 161.12163776 182.90722603 163.89041138 182.59274292 C167.77532291 182.15168021 171.66104021 181.7180135 175.546875 181.28515625 C177.26652718 181.08879074 177.26652718 181.08879074 179.0209198 180.88845825 C184.72196028 180.26031677 190.26450374 179.85700377 196 180 C195.69097513 192.83050755 195.05886557 205.55538068 193.625 218.3125 C192.21863858 230.85752017 191.30990419 243.40371449 190.5 256 C189.61894099 269.66284947 188.56737339 283.25704361 187.05688477 296.86694336 C186.0043577 306.48438336 185.32148799 316.10773842 184.69897461 325.76147461 C184.25738496 332.52530188 183.72506691 339.26081219 183 346 C181.97170299 355.56235255 181.32409969 365.14406728 180.69726562 374.74023438 C180.23188751 381.83822836 179.68646007 388.91980938 179 396 C170.16191151 398.237649 161.31131633 400.40825141 152.4375 402.5 C144.62765975 404.34681313 136.86779603 406.32900464 129.12207031 408.43017578 C124.75451312 409.60296438 120.37641592 410.73581307 116 411.875 C115.02119873 412.13015381 114.04239746 412.38530762 113.03393555 412.64819336 C108.08466348 413.93799389 103.13459944 415.22468313 98.18359375 416.5078125 C88.95857052 418.90200961 79.74834211 421.33443509 70.5625 423.875 C59.92060112 426.81442519 49.21227213 429.47929609 38.49047852 432.10888672 C28.71939465 434.51440658 19.01802219 437.12734464 9.40820312 440.11767578 C6.40357309 440.89552198 4.07317255 441.18625288 1 441 C0.09508469 414.99331155 -0.12573427 389.02119079 0 363 C15.41759968 358.59103846 30.87872121 354.47605836 46.44677734 350.63476562 C54.21237314 348.70413366 61.92634708 346.59067749 69.625 344.41015625 C81.18279476 341.13937401 92.74916773 337.98354456 104.41772461 335.12939453 C112.30909915 333.19741431 120.15557042 331.11298438 128 329 C128.03758423 327.09661865 128.03758423 327.09661865 128.07592773 325.15478516 C128.17151409 320.35735324 128.27133797 315.56001655 128.37231445 310.76269531 C128.4151015 308.70314797 128.45680383 306.64357775 128.49731445 304.58398438 C128.7515495 291.70274223 129.17654017 278.85809797 130 266 C129.00291016 266.13422363 128.00582031 266.26844727 126.97851562 266.40673828 C124.60026042 266.72688802 122.22200521 267.04703776 119.84375 267.3671875 C116.01216046 267.93759802 116.01216046 267.93759802 112.375 268.9453125 C105.35240125 270.77248235 98.08576746 271.50056775 90.91015625 272.5 C83.83824474 273.48040697 83.83824474 273.48040697 76.875 275.01953125 C71.79278119 276.30545557 66.6889128 276.97254646 61.5 277.6875 C47.34312445 279.69882633 33.27865128 282.18049169 19.20703125 284.71362305 C18.3616832 284.86455917 17.51633514 285.0154953 16.64537048 285.17100525 C15.05039088 285.45592823 13.4559241 285.74374244 11.86207581 286.03492737 C8.49455734 286.63540094 5.43494276 287 2 287 C1.73255121 263.75475451 1.47171651 240.50944195 1.21769714 217.26404572 C1.09947571 206.45806012 0.97949179 195.6521009 0.85449219 184.84619141 C0.74488097 175.37010082 0.63945395 165.89397216 0.53806591 156.41778994 C0.48482241 151.4526605 0.43016742 146.48756217 0.37039185 141.52250671 C-0.1885386 94.34682301 0 47.18339619 0 0 Z " fill="#FEFEFD" transform="translate(517,260)"/>
<path d="M0 0 C21.78 0 43.56 0 66 0 C66 145.53 66 291.06 66 441 C56.98875045 439.87359381 56.98875045 439.87359381 53.58203125 439.01953125 C52.81463623 438.82834717 52.04724121 438.63716309 51.2565918 438.44018555 C50.4500415 438.23304932 49.64349121 438.02591309 48.8125 437.8125 C47.94085205 437.59182861 47.0692041 437.37115723 46.17114258 437.14379883 C39.28700334 435.37975742 32.46261713 433.43425547 25.64086914 431.44482422 C17.55293993 429.10868847 9.40652805 427.01717758 1.25 424.9375 C-7.59313701 422.68271512 -16.4024025 420.37627213 -25.13476562 417.72021484 C-30.30073673 416.16386771 -35.50959587 414.84373419 -40.75 413.5625 C-47.58616125 411.88971753 -54.36542874 410.08459418 -61.125 408.125 C-79.50226394 402.8026418 -98.00700292 397.94810069 -116.54541016 393.22094727 C-117.6235498 392.94436279 -118.70168945 392.66777832 -119.8125 392.3828125 C-121.24529297 392.01760498 -121.24529297 392.01760498 -122.70703125 391.64501953 C-125 391 -125 391 -127 390 C-127 363.93 -127 337.86 -127 311 C-116.87515666 313.24996519 -116.87515666 313.24996519 -112.79551697 314.3659668 C-111.4059655 314.74439224 -111.4059655 314.74439224 -109.98834229 315.13046265 C-108.51285919 315.53574692 -108.51285919 315.53574692 -107.00756836 315.94921875 C-105.9462117 316.23890533 -104.88485504 316.52859192 -103.79133606 316.82705688 C-100.30696589 317.77857626 -96.82341332 318.73305418 -93.33984375 319.6875 C-90.90570214 320.35266778 -88.4715022 321.01762216 -86.0372467 321.68237305 C-80.29511151 323.25088763 -74.55346042 324.82116483 -68.81207806 326.39243221 C-57.92499248 329.37189414 -47.03691526 332.34772687 -36.148592 335.32266235 C-32.58107592 336.29781276 -29.01389823 337.27419326 -25.44676208 338.25073242 C-23.25219645 338.8507829 -21.05762192 339.4508009 -18.86303711 340.05078125 C-17.38451767 340.45606552 -17.38451767 340.45606552 -15.87612915 340.86953735 C-14.49080742 341.2479628 -14.49080742 341.2479628 -13.07749939 341.6340332 C-12.28538527 341.8508223 -11.49327116 342.06761139 -10.67715359 342.29096985 C-7.12770661 343.23102235 -3.56219002 344.1094525 0 345 C0 231.15 0 117.3 0 0 Z " fill="#EAEDED" transform="translate(399,260)"/>
</svg>
